<svg width="442" height="928" viewBox="0 0 442 928" fill="none" xmlns="http://www.w3.org/2000/svg">
<g clip-path="url(#clip0_930_61)">
<path d="M432.548 726.651C434.091 725.366 438.579 721.578 439.982 720.176C441.712 718.446 441.665 717.02 441.595 715.08C441.595 714.612 441.548 714.098 441.548 713.49V713.373C441.548 709.586 440.964 708.581 434.792 706.36C430.795 704.911 422.472 704.396 410.69 704.84C407.955 704.934 393.391 706.874 388.459 707.529V58.5577L384.602 56.3836V52.2693L380.908 49.8614V47.2899H373.755V49.838L368.705 52.316V56.3135L363.726 58.6278V70.1527H318.678V14.001L315.709 11.8269V6.75408L313.068 4.90729V2.07867H306.242V4.86054L302.642 7.10474V10.9853L299.041 13.3932V28.6818H269.236C268.534 27.5597 266.945 25.035 264.864 21.5985C261.755 16.4088 256.986 16.5257 256.215 16.5725H180.566C175.984 16.5725 173.132 21.4115 172.782 22.0661L169.392 27.2324H139.563V11.7568L135.636 9.27881V4.86054L132.036 2.61634V-0.00189209H125.771V2.87349L123.129 4.88392V9.34894L119.833 11.7568V68.002H73.9903V55.4018L69.2681 53.4849V48.8094L64.2888 46.9627V44.3678H57.0419V47.0795L53.3483 48.9263V53.742L49.7483 55.5888V707.108L33.2674 704.583C22.7945 703.485 8.6046 705.472 4.95777 706.43C0.0719634 707.716 -0.0449219 711.386 -0.0449219 711.55V716.926C-0.0449219 718.68 0.936915 719.919 1.0538 720.059L5.5422 724.711V925.099V927.928L432.548 928.021V726.675V726.651ZM6.52404 721.578C6.64092 721.345 6.78119 721.158 6.99158 720.994C7.87991 720.269 9.04876 720.036 10.1475 719.872C11.2696 719.732 12.4151 719.685 13.5372 719.615L16.9502 719.428C21.4854 719.194 26.0205 719.1 30.5557 719.334C35.0908 719.545 39.6026 720.129 44.0676 720.971C48.556 721.719 53.0678 722.28 57.5796 722.864C75.6267 725.062 93.6972 726.932 111.791 728.685C120.838 729.55 129.885 730.368 138.955 731.093C148.025 731.794 157.096 732.496 166.189 732.706C184.377 733.08 202.541 733.033 220.728 732.963C238.892 732.799 257.08 732.519 275.244 732.005C284.337 731.724 293.408 731.42 302.501 730.789C311.572 730.088 320.595 729.059 329.642 728.101L383.83 721.976C392.854 720.947 401.877 719.895 410.924 718.984C415.436 718.446 419.994 718.563 424.53 718.82C426.774 719.007 429.088 719.217 431.192 720.059C431.706 720.269 432.221 720.55 432.641 720.924C433.039 721.298 433.319 721.789 433.343 722.35C431.73 723.729 430.327 724.875 430.304 724.898L429.789 725.319V925.076H394.584V869.368C397.739 869.181 400.358 868.994 402.298 868.807L402.859 868.761L404.332 857.75L403.49 857.797C402.532 857.843 306.545 862.449 282.467 861.958H281.742V872.033H282.467C282.631 872.033 285.693 871.987 290.743 871.916V925.076H257.711V786.871H261.521V775.205H257.828V762.909L257.033 763.026C226.666 767.304 180.52 763.213 180.052 763.19H180.029H179.678L179.468 763.4C179.234 763.657 178.977 763.914 179.257 775.205H174.956V786.871H179.281V925.076H147.651V871.94C152.116 872.01 154.805 872.033 154.945 872.033H155.67V861.958H154.945C130.867 862.449 34.8804 857.843 33.922 857.797L33.0804 857.75L34.5532 868.761L35.1142 868.807C37.2415 869.018 40.187 869.228 43.7871 869.415V925.052H8.3942V921.639V723.519L6.50066 721.555L6.52404 721.578ZM140.171 925.076V871.87H142.532C143.818 871.87 145.033 871.893 146.132 871.916V925.076H140.171ZM142.532 870.444C121.469 870.14 78.3384 869.462 52.4366 868.41V868.363H51.1976C44.5585 868.083 39.1351 867.779 35.6753 867.451L34.5765 859.223C44.0676 859.667 130.165 863.711 154.127 863.36V870.584C153.028 870.584 150.737 870.537 147.511 870.49V870.42H142.509L142.532 870.444ZM138.745 871.823V925.076H52.4366V869.836C76.9124 870.818 116.653 871.496 138.745 871.823ZM180.473 764.639C186.2 765.107 227.788 768.379 256.308 764.522V775.182H180.566C180.449 770.834 180.403 766.205 180.473 764.616V764.639ZM179.187 776.608H260.002V785.468H176.265V776.608H179.211H179.187ZM256.191 925.076H250.23V786.917H256.191V925.076ZM248.804 786.871V925.076H187.954V786.871H248.804ZM186.551 786.917V925.076H180.59V786.917H186.551ZM290.626 870.444V870.49C286.909 870.537 284.267 870.584 283.052 870.584V863.36C307.013 863.711 393.111 859.667 402.602 859.223L401.503 867.451C398.043 867.779 392.62 868.083 385.981 868.363H385.724C359.962 869.438 316.013 870.14 294.67 870.444H290.626ZM385.724 869.789V925.076H299.415V871.8C321.974 871.472 361.692 870.794 385.724 869.789ZM294.67 871.87H297.989V925.076H292.028V871.916C292.87 871.916 293.758 871.893 294.67 871.87ZM387.126 925.076V869.789H393.087V925.076H387.126ZM45.0728 869.789H51.034V925.076H45.0728V869.789ZM381.796 53.8121V58.0434L385.654 60.2175V709.586C383.877 709.82 382.077 710.03 380.3 710.241V52.8303L381.796 53.8121ZM366.601 60.4512L371.581 58.1369V54.116L375.204 52.3394V709.843H376.139V51.8485L376.63 51.6147V50.1419H378.126V51.4277L379.365 52.2459V710.334H379.646C368.284 711.713 356.9 712.929 345.492 713.981C336.071 714.893 326.65 715.687 317.229 716.412V686.63H365.573V711.456L365.596 686.63H365.83V685.695H365.596V683.637H365.83V682.702H365.596V679.546H365.83V678.611H365.596V664.749H365.83V663.814H365.619V661.756H365.83V660.821H365.619V657.665H365.83V656.73H365.619V641.068H365.83V640.133H365.619V638.076H365.83V637.14H365.619V633.985H365.83V633.049H365.643V618.486H365.83V617.55H365.643V615.493H365.83V614.558H365.643V611.402H365.83V610.467H365.643V589.171C365.643 589.171 365.76 589.171 365.83 589.171C365.783 589.171 365.713 589.171 365.666 589.171V565.84C365.666 565.84 365.783 565.84 365.83 565.84C365.783 565.84 365.713 565.84 365.666 565.84V539.868C365.666 539.868 365.783 539.868 365.83 539.868C365.783 539.868 365.736 539.868 365.689 539.868V514.13C365.689 514.13 365.783 514.13 365.83 514.13C365.783 514.13 365.736 514.13 365.689 514.13V488.883C365.689 488.883 365.783 488.883 365.83 488.883C365.783 488.883 365.76 488.883 365.713 488.883V463.566C365.713 463.566 365.806 463.566 365.83 463.566C365.806 463.566 365.76 463.566 365.736 463.566V437.594C365.736 437.594 365.806 437.594 365.83 437.594C365.806 437.594 365.76 437.594 365.736 437.594V412.346C365.736 412.346 365.806 412.346 365.83 412.346C365.806 412.346 365.783 412.346 365.76 412.346V386.608C365.76 386.608 365.806 386.608 365.83 386.608C365.83 386.608 365.783 386.608 365.76 386.608V361.361C365.76 361.361 365.806 361.361 365.83 361.361C365.83 361.361 365.806 361.361 365.783 361.361V336.348H365.83C365.83 336.348 365.83 336.348 365.806 336.348V306.051H365.83V278.139L365.947 82.6595C365.947 82.6595 366.04 82.6595 366.087 82.6595C366.04 82.6595 365.993 82.6595 365.947 82.6595V73.1684H366.625V60.6383L366.601 60.4512ZM342.312 592.537L336.164 592.584C334.06 592.607 331.956 592.584 329.852 592.654L323.541 592.794C321.46 592.864 319.379 592.911 317.299 593.028V569.698C319.379 569.814 321.46 569.861 323.541 569.931L329.852 570.072C331.956 570.118 334.06 570.118 336.164 570.142L342.476 570.188H342.64L342.78 570.072L343.925 569.066C344.299 568.762 344.673 568.459 345.094 568.201C345.912 567.687 346.824 567.313 347.759 567.033C349.653 566.448 351.663 566.191 353.627 566.144C357.578 566.074 361.528 565.981 365.479 565.794V589.101C361.528 588.914 357.578 588.82 353.627 588.75C351.546 588.703 349.489 588.96 347.502 589.545C346.497 589.849 345.515 590.223 344.603 590.784C344.136 591.041 343.715 591.391 343.318 591.719L342.289 592.584L342.312 592.537ZM353.65 565.373C351.57 565.326 349.513 565.583 347.526 566.168C346.52 566.471 345.538 566.846 344.627 567.407C344.159 567.664 343.738 568.014 343.341 568.342L342.312 569.207L336.164 569.253C334.06 569.277 331.956 569.253 329.852 569.323L323.541 569.464C321.46 569.534 319.379 569.581 317.299 569.698V543.726C319.379 543.842 321.46 543.889 323.541 543.959L329.852 544.1C331.956 544.146 334.06 544.146 336.164 544.17L342.476 544.217H342.64L342.78 544.1L343.925 543.094C344.299 542.791 344.673 542.487 345.094 542.229C345.912 541.715 346.824 541.341 347.759 541.061C349.653 540.476 351.663 540.219 353.627 540.172C357.578 540.102 361.528 540.009 365.456 539.822V565.77C361.528 565.583 357.578 565.49 353.627 565.42L353.65 565.373ZM353.65 539.401C351.57 539.354 349.513 539.611 347.526 540.196C346.52 540.5 345.538 540.874 344.627 541.435C344.159 541.692 343.738 542.042 343.341 542.37L342.312 543.235L336.164 543.281C334.06 543.305 331.956 543.281 329.852 543.352L323.541 543.492C321.46 543.562 319.403 543.609 317.322 543.726V517.987C319.403 518.081 321.483 518.128 323.541 518.221L329.852 518.362C331.956 518.408 334.06 518.408 336.164 518.432L342.476 518.478H342.64L342.78 518.362L343.925 517.356C344.299 517.052 344.673 516.748 345.094 516.491C345.912 515.977 346.824 515.603 347.759 515.322C349.653 514.738 351.663 514.481 353.627 514.434C357.578 514.364 361.505 514.271 365.456 514.083V539.798C361.528 539.611 357.578 539.518 353.65 539.448V539.401ZM353.65 513.663C351.57 513.616 349.513 513.873 347.526 514.458C346.52 514.761 345.538 515.135 344.627 515.697C344.159 515.954 343.738 516.304 343.341 516.632L342.312 517.497L336.164 517.543C334.06 517.567 331.956 517.543 329.852 517.613L323.541 517.754C321.483 517.824 319.403 517.871 317.346 517.987V492.74C319.426 492.834 321.483 492.88 323.541 492.974L329.852 493.114C331.956 493.161 334.06 493.161 336.164 493.184L342.476 493.231H342.64L342.78 493.114L343.925 492.109C344.299 491.805 344.673 491.501 345.094 491.244C345.912 490.73 346.824 490.356 347.759 490.075C349.653 489.491 351.663 489.234 353.627 489.187C357.554 489.117 361.505 489.023 365.432 488.836V514.06C361.505 513.873 357.578 513.78 353.627 513.709L353.65 513.663ZM353.65 488.392C351.57 488.345 349.513 488.602 347.526 489.187C346.52 489.491 345.538 489.865 344.627 490.426C344.159 490.683 343.738 491.034 343.341 491.361L342.312 492.226L336.164 492.273C334.06 492.296 331.956 492.273 329.852 492.343L323.541 492.483C321.483 492.553 319.403 492.6 317.346 492.717V467.399C319.426 467.493 321.483 467.54 323.541 467.633L329.852 467.773C331.956 467.82 334.06 467.82 336.164 467.844L342.476 467.89H342.64L342.78 467.773L343.925 466.768C344.299 466.464 344.673 466.16 345.094 465.903C345.912 465.389 346.824 465.015 347.759 464.734C349.653 464.15 351.663 463.893 353.627 463.846C357.554 463.776 361.482 463.682 365.409 463.495V488.789C361.482 488.602 357.554 488.509 353.627 488.439L353.65 488.392ZM353.65 463.051C351.57 463.005 349.513 463.262 347.526 463.846C346.52 464.15 345.538 464.524 344.627 465.085C344.159 465.342 343.738 465.693 343.341 466.02L342.312 466.885L336.164 466.932C334.06 466.955 331.956 466.932 329.852 467.002L323.541 467.142C321.483 467.212 319.426 467.259 317.369 467.376V441.404C319.426 441.498 321.483 441.544 323.541 441.638L329.852 441.778C331.956 441.825 334.06 441.825 336.164 441.848L342.476 441.895H342.64L342.78 441.778L343.925 440.773C344.299 440.469 344.673 440.165 345.094 439.908C345.912 439.394 346.824 439.02 347.759 438.739C349.653 438.155 351.663 437.898 353.627 437.851C357.554 437.781 361.482 437.687 365.409 437.5V463.449C361.505 463.262 357.554 463.168 353.627 463.098L353.65 463.051ZM353.65 437.079C351.57 437.033 349.513 437.29 347.526 437.874C346.52 438.178 345.538 438.552 344.627 439.113C344.159 439.37 343.738 439.721 343.341 440.048L342.312 440.913L336.164 440.96C334.06 440.983 331.956 440.96 329.852 441.03L323.541 441.17C321.483 441.241 319.426 441.287 317.369 441.404V416.157C319.426 416.25 321.483 416.297 323.541 416.391L329.852 416.531C331.956 416.578 334.06 416.578 336.164 416.601L342.476 416.648H342.64L342.78 416.531L343.925 415.526C344.299 415.222 344.673 414.918 345.094 414.661C345.912 414.146 346.824 413.772 347.759 413.492C349.653 412.907 351.663 412.65 353.627 412.604C357.554 412.533 361.482 412.44 365.386 412.253V437.477C361.482 437.29 357.554 437.196 353.627 437.126L353.65 437.079ZM353.65 411.832C351.57 411.785 349.513 412.043 347.526 412.627C346.52 412.931 345.538 413.305 344.627 413.866C344.159 414.123 343.738 414.474 343.341 414.801L342.312 415.666L336.164 415.713C334.06 415.736 331.956 415.713 329.852 415.783L323.541 415.923C321.483 415.993 319.45 416.04 317.392 416.157V391.634C319.45 391.728 321.507 391.775 323.541 391.868L329.852 392.008C331.956 392.055 334.06 392.055 336.164 392.078L342.476 392.125H342.686L342.827 391.962C343.528 391.19 344.183 390.372 344.907 389.717C345.655 389.063 346.52 388.549 347.432 388.151C349.279 387.356 351.313 386.982 353.346 386.865L359.588 386.725C361.528 386.655 363.469 386.608 365.409 386.515V412.23C361.505 412.043 357.578 411.949 353.674 411.879L353.65 411.832ZM353.346 386.094C351.219 386.094 349.092 386.491 347.105 387.31C346.123 387.73 345.164 388.268 344.323 388.969C343.528 389.647 342.92 390.395 342.266 391.097L336.164 391.143C334.06 391.167 331.956 391.143 329.852 391.214L323.541 391.354C321.483 391.424 319.45 391.471 317.392 391.588V366.34C319.45 366.434 321.483 366.481 323.541 366.574L329.852 366.714C331.956 366.761 334.06 366.761 336.164 366.784L342.476 366.831H342.686L342.827 366.668C343.528 365.896 344.183 365.078 344.907 364.423C345.655 363.769 346.52 363.255 347.432 362.857C349.279 362.062 351.313 361.688 353.346 361.571L359.588 361.431C361.528 361.361 363.469 361.314 365.386 361.221V386.445C361.388 386.258 357.367 386.164 353.346 386.094ZM353.346 360.823C351.219 360.823 349.092 361.221 347.105 362.039C346.123 362.46 345.164 362.997 344.323 363.699C343.528 364.377 342.92 365.125 342.266 365.826L336.164 365.873C334.06 365.896 331.956 365.873 329.852 365.943L323.541 366.083C321.507 366.153 319.45 366.2 317.416 366.317V341.327C319.473 341.42 321.507 341.467 323.541 341.561L329.852 341.701C331.956 341.748 334.06 341.748 336.164 341.771L342.476 341.818H342.686L342.827 341.654C343.528 340.883 344.183 340.064 344.907 339.41C345.655 338.755 346.52 338.241 347.432 337.844C349.279 337.049 351.313 336.675 353.346 336.558L359.588 336.418C361.528 336.348 363.445 336.301 365.386 336.207V361.197C361.388 361.01 357.391 360.917 353.346 360.847V360.823ZM353.346 335.81C351.219 335.81 349.092 336.207 347.105 337.025C346.123 337.446 345.164 337.984 344.323 338.685C343.528 339.363 342.92 340.111 342.266 340.813L336.164 340.859C334.06 340.883 331.956 340.859 329.852 340.929L323.541 341.07C321.507 341.14 319.473 341.187 317.439 341.303V311.007C319.496 311.1 321.507 311.147 323.541 311.241L329.852 311.381C331.956 311.428 334.06 311.428 336.164 311.451L342.476 311.498H342.686L342.827 311.334C343.528 310.563 344.183 309.744 344.907 309.09C345.655 308.435 346.52 307.921 347.432 307.524C349.279 306.729 351.313 306.355 353.346 306.238L359.588 306.098C361.505 306.027 363.445 305.981 365.362 305.887V336.161C361.365 335.974 357.367 335.88 353.346 335.81ZM353.346 305.49C351.219 305.49 349.092 305.887 347.105 306.705C346.123 307.126 345.164 307.664 344.323 308.365C343.528 309.043 342.92 309.791 342.266 310.492L336.164 310.539C334.06 310.563 331.956 310.539 329.852 310.609L323.541 310.75C321.507 310.82 319.473 310.867 317.439 310.983V283.095C319.473 283.188 321.507 283.235 323.541 283.328L329.852 283.469C331.956 283.515 334.06 283.515 336.164 283.539L342.476 283.585H342.686L342.827 283.422C343.528 282.65 344.183 281.832 344.907 281.178C345.655 280.523 346.52 280.009 347.432 279.611C349.279 278.817 351.313 278.443 353.346 278.326L359.588 278.185C361.505 278.115 363.422 278.068 365.339 277.975V305.84C361.341 305.653 357.367 305.56 353.346 305.49ZM353.346 277.601C351.219 277.601 349.092 277.998 347.105 278.817C346.123 279.237 345.164 279.775 344.323 280.476C343.528 281.154 342.92 281.902 342.266 282.604L336.164 282.65C334.06 282.674 331.956 282.65 329.852 282.721L323.541 282.861C321.507 282.931 319.496 282.978 317.463 283.095V255.697C319.496 255.79 321.53 255.837 323.541 255.93L329.852 256.071C331.956 256.117 334.06 256.117 336.164 256.141L342.476 256.188H342.686L342.827 256.024C343.528 255.252 344.183 254.434 344.907 253.78C345.655 253.125 346.52 252.611 347.432 252.213C349.279 251.419 351.313 251.045 353.346 250.928L359.588 250.787C361.505 250.717 363.422 250.671 365.339 250.577V277.952C361.365 277.765 357.367 277.671 353.346 277.601ZM365.315 250.507C361.318 250.32 357.344 250.226 353.323 250.156C351.196 250.156 349.068 250.554 347.081 251.372C346.1 251.793 345.141 252.33 344.299 253.032C343.505 253.71 342.897 254.458 342.242 255.159L336.141 255.206C334.037 255.229 331.933 255.206 329.829 255.276L323.517 255.416C321.507 255.486 319.473 255.533 317.463 255.65V229.444C321.6 229.631 325.715 229.725 329.829 229.795C331.933 229.842 334.037 229.842 336.141 229.865L342.453 229.912H342.71L342.85 229.701C343.458 228.79 344.019 227.855 344.627 227.013C345.281 226.195 346.029 225.47 346.894 224.886C348.624 223.717 350.705 223.086 352.785 222.852C354.889 222.758 357.11 222.758 359.261 222.688C361.271 222.618 363.258 222.571 365.269 222.478V250.507H365.315ZM365.315 222.454C363.305 222.361 361.318 222.314 359.308 222.244C357.133 222.221 355.006 222.127 352.762 222.15C350.541 222.267 348.344 222.969 346.427 224.208C345.492 224.839 344.65 225.61 343.925 226.499C343.294 227.34 342.757 228.182 342.219 229L336.164 229.047C334.06 229.047 331.956 229.047 329.852 229.117C325.738 229.187 321.6 229.281 317.486 229.468V202.07C321.624 202.257 325.738 202.35 329.852 202.42C331.956 202.467 334.06 202.467 336.164 202.49L342.476 202.537H342.733L342.873 202.327C343.481 201.415 344.042 200.48 344.65 199.638C345.305 198.82 346.053 198.095 346.918 197.511C348.648 196.342 350.728 195.711 352.809 195.477C354.913 195.384 357.133 195.384 359.284 195.314C361.271 195.243 363.282 195.197 365.269 195.103V222.478L365.315 222.454ZM365.292 195.033C363.305 194.94 361.295 194.893 359.308 194.823C357.133 194.799 355.006 194.706 352.762 194.729C350.541 194.846 348.344 195.547 346.427 196.786C345.492 197.418 344.65 198.189 343.925 199.077C343.294 199.919 342.757 200.76 342.219 201.579L336.164 201.625C334.06 201.625 331.956 201.625 329.852 201.696C325.738 201.766 321.624 201.859 317.509 202.046V173.924C321.647 174.111 325.738 174.204 329.852 174.274C331.956 174.321 334.06 174.321 336.164 174.344L342.476 174.391H342.733L342.873 174.181C343.481 173.269 344.042 172.334 344.65 171.492C345.305 170.674 346.053 169.949 346.918 169.365C348.648 168.196 350.728 167.565 352.809 167.331C354.913 167.238 357.133 167.238 359.284 167.168C361.271 167.097 363.258 167.051 365.269 166.957V195.056L365.292 195.033ZM365.269 166.887C363.282 166.794 361.295 166.747 359.308 166.677C357.133 166.653 355.006 166.56 352.762 166.583C350.541 166.7 348.344 167.401 346.427 168.64C345.492 169.272 344.65 170.043 343.925 170.931C343.294 171.773 342.757 172.614 342.219 173.433L336.164 173.479C334.06 173.479 331.956 173.479 329.852 173.55C325.738 173.62 321.624 173.713 317.509 173.9V148.185C321.624 148.372 325.738 148.466 329.852 148.536C334.06 148.63 338.268 148.606 342.476 148.653H342.757L342.897 148.396C343.972 146.339 344.79 144.211 346.38 142.645C347.9 141.032 349.957 139.98 352.131 139.536C352.668 139.419 353.206 139.372 353.767 139.372H355.497L358.934 139.279C361.037 139.209 363.165 139.162 365.269 139.068V166.934V166.887ZM365.269 138.975C363.165 138.881 361.061 138.835 358.934 138.764L355.497 138.694H353.767C353.183 138.648 352.575 138.694 351.991 138.764C349.653 139.138 347.432 140.284 345.749 141.99C344.931 142.832 344.183 143.791 343.645 144.842C343.107 145.801 342.663 146.713 342.196 147.671C338.081 147.718 333.967 147.695 329.852 147.788C325.738 147.858 321.647 147.952 317.533 148.139V120.25C321.647 120.437 325.761 120.53 329.852 120.6C334.06 120.694 338.268 120.671 342.476 120.717H342.757L342.897 120.46C343.972 118.403 344.79 116.276 346.38 114.709C347.9 113.096 349.957 112.044 352.131 111.6C352.668 111.483 353.206 111.437 353.767 111.437H355.497L358.934 111.343C361.037 111.273 363.141 111.226 365.245 111.133V138.998L365.269 138.975ZM365.245 111.086C363.141 110.992 361.037 110.946 358.934 110.876L355.497 110.805H353.767C353.183 110.759 352.575 110.805 351.991 110.876C349.653 111.25 347.432 112.395 345.749 114.102C344.931 114.943 344.183 115.902 343.645 116.954C343.107 117.912 342.663 118.824 342.196 119.782C338.081 119.829 333.967 119.806 329.852 119.899C325.761 119.969 321.647 120.063 317.556 120.25V82.4958C321.554 82.6361 325.528 82.7062 329.502 82.753L341.681 82.8465L353.861 82.7763C357.648 82.7296 361.435 82.6595 365.222 82.5192V111.109L365.245 111.086ZM317.299 593.005C319.379 593.121 321.46 593.168 323.541 593.238L329.852 593.379C331.956 593.425 334.06 593.425 336.164 593.449L342.476 593.495H342.64L342.78 593.379L343.925 592.373C344.299 592.069 344.673 591.766 345.094 591.508C345.912 590.994 346.824 590.62 347.759 590.339C349.653 589.755 351.663 589.498 353.627 589.451C357.578 589.381 361.528 589.288 365.479 589.101V610.397H317.252V593.028L317.299 593.005ZM365.526 611.309V614.465H317.276V611.309H365.526ZM365.526 615.4V617.457H317.276V615.4H365.526ZM365.526 618.415V632.979H317.276V618.415H365.526ZM365.526 633.938V637.094H317.252V633.938H365.526ZM365.526 638.005V640.062H317.252V638.005H365.526ZM365.549 641.021V656.684H317.276V641.021H365.549ZM365.549 657.619V660.775H317.252V657.619H365.549ZM365.549 661.71V663.767H317.252V661.71H365.549ZM365.549 664.725V678.588H317.252V664.725H365.549ZM365.549 679.5V682.656H317.229V679.5H365.549ZM365.573 683.591V685.648H317.252V683.591H365.573ZM365.222 72.9814V82.4491C361.435 82.3322 357.648 82.2621 353.861 82.1919L341.681 82.1218L329.502 82.2153C325.528 82.262 321.554 82.3322 317.579 82.4724V72.9814H365.222ZM315.896 15.4504V73.0047H316.878L317.182 610.397H316.995V611.332H317.182V614.488H316.995V615.423H317.182V617.48H316.995V618.415H317.182V632.979H316.995V633.914H317.182V637.07H316.995V638.005H317.182V640.062H316.995V640.998H317.205V656.66H316.995V657.595H317.205V660.751H316.995V661.686H317.205V663.744H316.995V664.679H317.205V678.541H316.995V679.476H317.205V682.632H316.995V683.567H317.229V685.625H316.995V686.56H317.229V716.342C315.452 716.482 313.676 716.622 311.875 716.739V7.50215L312.927 8.25022V13.2763L315.896 15.4504ZM309.094 4.90729H310.286V6.40343L310.917 6.84759V716.88C310.075 716.95 309.234 716.997 308.392 717.067V6.87097L309.094 6.42681V4.88392V4.90729ZM301.87 14.9127L305.47 12.5048V8.69438L307.434 7.47877V717.137C306.078 717.23 304.722 717.347 303.366 717.417C291.257 718.259 279.148 718.937 267.038 719.474V664.585H300.117V663.65H267.038V661.593H300.117V660.658H267.038V657.502H300.117V656.567H267.038V646.094H300.117V645.159H267.038V643.102H300.117V642.167H267.038V639.011H300.117V638.076H267.038V623.745H300.117V622.81H267.038V620.753H300.117V619.818H267.038V616.662H300.117V615.727H267.038V600.181H300.117V599.246H267.038V597.189H300.117V596.254H267.038V593.098H300.117V592.163H267.038V589.498H300.14V588.563H138.184L138.418 131.26H300.117L300.421 717.137L300.771 31.6273H301.893V15.0062L301.87 14.9127ZM253.83 589.428H258.178V719.872C256.729 719.919 255.28 719.989 253.83 720.036V589.428ZM258.88 589.428H261.311V719.755C260.493 719.778 259.698 719.825 258.88 719.849V589.428ZM262.012 589.428H266.36V592.093H266.243V593.028H266.36V596.184H266.243V597.119H266.36V599.176H266.243V600.111H266.36V615.657H266.243V616.592H266.36V619.748H266.243V620.683H266.36V622.74H266.243V623.675H266.36V638.005H266.243V638.94H266.36V642.096H266.243V643.031H266.36V645.089H266.243V646.024H266.36V656.497H266.243V657.432H266.36V660.588H266.243V661.523H266.36V663.58H266.243V664.515H266.36V719.428C264.911 719.498 263.462 719.568 262.012 719.615V589.334V589.428ZM138.137 660.658V657.502H171.332V660.658H138.137ZM171.332 661.593V663.65H138.137V661.593H171.332ZM138.137 656.567V646.094H171.332V656.567H138.137ZM138.16 645.135V643.078H171.356V645.135H138.16ZM138.16 642.12V638.964H171.356V642.12H138.16ZM138.16 638.029V623.699H171.332V638.029H138.16ZM138.16 622.763V620.706H171.332V622.763H138.16ZM138.16 619.748V616.592H171.332V619.748H138.16ZM138.16 615.657V600.111H171.332V615.657H138.16ZM138.184 599.176V597.119H171.356V599.176H138.184ZM138.184 596.184V593.028H171.356V596.184H138.184ZM138.184 592.093V589.428H171.332V592.093H138.184ZM172.805 42.4275H172.922L172.992 42.334L179.748 32.3987L179.772 32.3052C179.818 32.165 180.099 31.9312 180.356 31.8143C180.637 31.6741 180.917 31.5572 181.244 31.487C181.852 31.3234 182.507 31.2065 183.161 31.1598C184.47 31.0429 185.779 31.0896 187.112 31.0896H195.06L210.98 31.1598C221.593 31.2065 232.206 31.1364 242.82 31.113H250.768L254.742 31.0896C255.35 31.0662 255.981 31.2766 256.565 31.5338C257.15 31.8143 257.711 32.1182 258.225 32.539C259.277 33.3104 260.142 34.2923 260.937 35.3443C261.708 36.3962 262.363 37.5417 262.994 38.7106C263.649 39.8794 264.163 41.0716 264.888 42.2405C265.075 42.521 265.308 42.8015 265.612 43.0353C265.916 43.2457 266.267 43.386 266.617 43.4327C267.295 43.5496 267.973 43.5496 268.651 43.5496C279.124 43.5496 289.597 43.4327 300.093 43.3626V60.2876C299.789 59.0486 299.299 57.833 298.621 56.7343C297.358 54.607 295.465 52.8303 293.244 51.6848C292.145 51.1004 290.93 50.703 289.714 50.4458C288.498 50.1887 287.189 50.1419 285.997 50.1419L278.68 50.0484C276.155 49.9783 273.584 50.5861 271.363 51.8718C269.142 53.1342 267.272 55.0278 266.056 57.272C264.794 59.4928 264.28 62.1578 264.373 64.6357V71.9528C264.373 81.7244 264.373 91.4726 264.49 101.244L264.677 115.902C264.794 120.694 264.864 125.486 265.028 130.279H253.83L254.157 102.179L254.344 73.4489L254.391 66.2721V62.6721C254.391 61.4565 254.344 60.2175 254.134 59.0019C253.339 54.0927 250.628 49.651 246.957 46.4016C243.287 43.1288 238.705 40.9548 233.913 39.9729C231.528 39.4586 229.05 39.295 226.643 39.3184H219.466H212.289C209.905 39.3184 207.403 39.3885 205.019 39.8794C200.227 40.7911 195.598 42.8717 191.881 46.0977C188.164 49.277 185.359 53.6719 184.447 58.5577C184.213 59.7733 184.096 61.0123 184.096 62.2279V65.828L184.143 73.0047L184.33 101.735L184.681 130.279H173.46C173.6 125.556 173.67 120.834 173.787 116.112L173.974 101.455C174.091 91.683 174.091 81.888 174.138 72.1164V64.776C174.138 63.5838 174.091 62.2513 173.81 60.9889C173.553 59.7265 173.109 58.5109 172.501 57.3888C171.286 55.1213 169.439 53.2277 167.241 51.942C165.044 50.6329 162.449 50.0251 159.924 50.0718L152.584 50.1653C151.368 50.1653 150.083 50.1653 148.867 50.4458C147.628 50.6796 146.436 51.1004 145.314 51.6615C143.07 52.7836 141.176 54.5368 139.867 56.6642C139.212 57.7161 138.745 58.8382 138.418 60.0071V42.2872L155.459 42.4275L172.782 42.4976L172.805 42.4275ZM300.117 130.232H265.028C265.191 125.44 265.262 120.647 265.378 115.855L265.565 101.197C265.682 91.4259 265.682 81.6776 265.729 71.906V64.589C265.589 62.1811 266.033 59.8902 267.155 57.833C268.254 55.7758 269.937 54.0459 271.947 52.8771C273.958 51.7082 276.272 51.077 278.657 51.077L285.974 50.9835C287.213 50.9601 288.381 50.9601 289.55 51.1705C290.719 51.3809 291.865 51.7316 292.94 52.2459C295.091 53.2511 296.984 54.8641 298.317 56.8745C299.135 58.1135 299.743 59.5162 300.093 60.9889L300.14 130.208L300.117 130.232ZM253.783 130.232H184.681L185.031 101.688L185.218 72.958L185.265 65.7812V62.2045C185.265 61.0357 185.405 59.8902 185.616 58.7447C186.504 54.1862 189.146 50.0484 192.676 47.0328C196.229 43.9938 200.647 42.0067 205.229 41.1651C207.544 40.721 209.858 40.6275 212.242 40.6508H219.419H226.596C228.98 40.6041 231.295 40.7677 233.609 41.2353C238.191 42.1704 242.562 44.2042 246.069 47.3133C249.552 50.3991 252.124 54.5602 252.895 59.1655C253.105 60.311 253.152 61.4564 253.176 62.6487V66.2488L253.246 73.4255L253.433 102.156L253.76 130.255L253.783 130.232ZM138.464 60.7084C138.838 59.3058 139.423 57.9966 140.218 56.8044C141.573 54.794 143.467 53.2043 145.641 52.2225C146.716 51.7316 147.862 51.3576 149.031 51.1705C150.2 50.9601 151.368 50.9835 152.607 51.0069L159.948 51.1004C162.309 51.1004 164.623 51.755 166.634 52.9472C168.644 54.1394 170.304 55.8927 171.379 57.9499C171.917 58.9785 172.314 60.0772 172.525 61.2227C172.758 62.3682 172.782 63.4903 172.758 64.7526V72.093C172.758 81.8646 172.758 91.6596 172.875 101.431L173.062 116.089C173.179 120.811 173.249 125.533 173.39 130.255H138.371L138.418 60.7318L138.464 60.7084ZM170.935 30.0844L175.213 23.5856L175.283 23.4687C175.283 23.4687 177.504 19.4011 180.613 19.4011H256.448C256.448 19.4011 260.072 19.0504 262.456 23.0479C265.332 27.8168 267.272 30.8325 267.295 30.8792L267.716 31.5338H300.07V43.3392C289.597 43.2691 279.124 43.1522 268.651 43.1288C267.365 43.1054 265.893 43.1989 265.262 41.9833C264.584 40.8846 264.046 39.6456 263.415 38.4768C262.199 36.1391 260.75 33.778 258.552 32.1182C258.015 31.6974 257.43 31.3468 256.799 31.0662C256.168 30.7857 255.513 30.5286 254.789 30.552H250.815L242.866 30.5286C232.253 30.5286 221.64 30.4351 211.027 30.4818L195.107 30.5286H187.135C185.803 30.5753 184.47 30.5286 183.138 30.6455C182.46 30.6922 181.805 30.8091 181.127 30.9961C180.8 31.0896 180.473 31.2065 180.146 31.3701C179.842 31.5572 179.514 31.6974 179.304 32.1883L179.351 32.0948L172.712 41.96L155.506 42.0301L138.464 42.1704V30.0377H170.935V30.0844ZM122.661 13.1828L125.958 10.7749V6.26317L126.729 5.67874V717.184H127.664V5.0008L128.599 4.27611V2.82673H129.23V4.20598L130.189 4.81379V717.23H131.124V5.37484L132.83 6.42681V10.8217L136.758 13.2997V30.061H137.763L137.81 130.208H137.553V131.144H137.81L138.043 588.446H137.553V589.381H138.043V592.046H137.763V592.981H138.043V596.137H137.763V597.072H138.043V599.129H137.763V600.064H138.043V615.61H137.763V616.545H138.043V619.701H137.763V620.636H138.043V622.693H137.763V623.628H138.067V637.959H137.763V638.894H138.067V642.05H137.763V642.985H138.067V645.042H137.763V645.977H138.067V656.45H137.763V657.385H138.067V660.541H137.763V661.476H138.067V663.533H137.763V664.468H138.067V716.926L138.114 664.468H171.309V720.036H172.01V664.468H172.127V663.533H172.01V661.476H172.127V660.541H172.01V657.385H172.127V656.45H172.01V645.977H172.127V645.042H172.01V642.985H172.127V642.05H172.01V638.894H172.127V637.959H172.01V623.628H172.127V622.693H172.01V620.636H172.127V619.701H172.01V616.545H172.127V615.61H172.01V600.064H172.127V599.129H172.01V597.072H172.127V596.137H172.01V592.981H172.127V592.046H172.01V589.381H176.359V720.129H177.06V589.381H179.491V720.129H180.192V589.381H184.54V720.129H185.242V589.381H253.082V592.537H185.359V593.472H253.082V595.529H185.359V596.464H253.082V610.794H185.359V611.729H253.082V614.885H185.359V615.82H253.082V617.878H185.359V618.813H253.082V634.101H185.359V635.036H253.082V638.192H185.359V639.127H253.082V641.185H185.359V642.12H253.082V653.808H185.359V654.743H253.082V657.899H185.359V658.834H253.082V660.892H185.359V661.827H253.082V719.942C241.721 720.363 230.336 720.667 218.975 720.854C190.829 721.368 162.683 720.059 134.607 717.861C130.119 717.511 125.607 717.113 121.118 716.716V686.489H121.352V685.554H121.118V683.497H121.352V682.562H121.142V679.406H121.352V678.471H121.142V664.608H121.352V663.673H121.142V661.616H121.352V660.681H121.142V657.525H121.352V656.59H121.142V640.928H121.352V639.992H121.142V637.935H121.352V637H121.165V633.844H121.352V632.909H121.165V618.345H121.352V617.41H121.165V615.353H121.352V614.418H121.165V611.262H121.352V610.327H121.165L121.469 70.7839H122.615V13.1828H122.661ZM72.9149 111.109C75.089 111.203 77.2865 111.25 79.4605 111.343L82.897 111.413H84.6269C85.1879 111.437 85.7256 111.507 86.2633 111.624C88.4373 112.068 90.4945 113.12 92.014 114.733C93.6037 116.299 94.4219 118.426 95.4972 120.484L95.6375 120.741H95.918C100.126 120.694 104.334 120.717 108.542 120.624C112.633 120.554 116.747 120.46 120.838 120.273V148.162C116.747 147.975 112.633 147.882 108.542 147.811C104.427 147.718 100.313 147.741 96.1985 147.695C95.731 146.759 95.2868 145.824 94.7491 144.866C94.1881 143.814 93.4634 142.855 92.6452 142.014C90.9854 140.307 88.7646 139.162 86.4035 138.788C85.8191 138.694 85.2113 138.648 84.6269 138.671H82.897L79.4605 138.764C77.2631 138.835 75.089 138.881 72.8916 138.998V111.109H72.9149ZM72.8916 139.022C75.089 139.115 77.2631 139.162 79.4605 139.255L82.897 139.326H84.6269C85.1879 139.349 85.7256 139.419 86.2633 139.536C88.4373 139.98 90.4945 141.032 92.014 142.645C93.6037 144.211 94.4219 146.339 95.4972 148.396L95.6375 148.653H95.918C100.126 148.606 104.334 148.63 108.542 148.536C112.656 148.466 116.747 148.372 120.861 148.185V173.9C116.77 173.713 112.656 173.62 108.542 173.55C106.438 173.503 104.334 173.503 102.23 173.479L96.1751 173.433C95.6141 172.591 95.0998 171.773 94.4686 170.931C93.7439 170.066 92.9024 169.272 91.9673 168.64C90.0737 167.425 87.8763 166.723 85.6321 166.583C83.4113 166.583 81.2839 166.653 79.0865 166.677C77.0059 166.747 74.9488 166.794 72.8682 166.887V138.998L72.8916 139.022ZM72.8916 166.91C74.9721 167.004 77.0293 167.051 79.1099 167.121C81.2606 167.168 83.4814 167.191 85.5853 167.284C87.6893 167.518 89.7464 168.149 91.4763 169.318C92.3413 169.903 93.0894 170.627 93.7439 171.446C94.3517 172.264 94.9362 173.222 95.5206 174.134L95.6608 174.344H95.918L102.23 174.298C104.334 174.298 106.438 174.298 108.542 174.227C112.656 174.157 116.77 174.064 120.885 173.877V201.999C116.794 201.812 112.679 201.719 108.542 201.649C106.438 201.602 104.334 201.602 102.23 201.579L96.1751 201.532C95.6141 200.69 95.0998 199.872 94.4686 199.031C93.7439 198.166 92.9024 197.371 91.9673 196.74C90.0737 195.524 87.8763 194.823 85.6321 194.682C83.4113 194.682 81.2839 194.753 79.0865 194.776C77.0059 194.846 74.9254 194.893 72.8682 194.986V166.864L72.8916 166.91ZM72.8682 195.056C74.9488 195.15 77.0293 195.197 79.1099 195.267C81.2606 195.314 83.4814 195.337 85.5853 195.43C87.6893 195.664 89.7464 196.295 91.4763 197.464C92.3413 198.049 93.0894 198.773 93.7439 199.592C94.3517 200.41 94.9362 201.368 95.5206 202.28L95.6608 202.49H95.918L102.23 202.444C104.334 202.444 106.438 202.444 108.542 202.373C112.656 202.303 116.77 202.21 120.885 202.023V229.421C116.77 229.234 112.656 229.14 108.542 229.07C106.438 229.023 104.334 229.023 102.23 229L96.1751 228.953C95.6141 228.112 95.0998 227.293 94.4686 226.452C93.7439 225.587 92.9024 224.792 91.9673 224.161C90.0737 222.945 87.8763 222.244 85.6321 222.104C83.4113 222.104 81.2839 222.174 79.0865 222.197C77.0059 222.267 74.9254 222.314 72.8448 222.431V195.033L72.8682 195.056ZM72.8682 222.478C74.9488 222.571 77.0293 222.618 79.1099 222.712C81.2606 222.758 83.4814 222.782 85.5853 222.875C87.6893 223.109 89.7464 223.74 91.4763 224.909C92.3413 225.493 93.0894 226.218 93.7439 227.036C94.3517 227.855 94.9362 228.813 95.5206 229.725L95.6608 229.935H95.918L102.23 229.888C104.334 229.888 106.438 229.888 108.542 229.818C112.656 229.748 116.794 229.655 120.908 229.468V255.673C118.898 255.58 116.887 255.533 114.853 255.439L108.542 255.299C106.438 255.252 104.334 255.252 102.23 255.229L96.1284 255.182C95.4738 254.481 94.866 253.71 94.0712 253.055C93.2296 252.354 92.2945 251.793 91.2893 251.395C89.3023 250.577 87.175 250.18 85.0477 250.18C80.9567 250.25 76.889 250.343 72.8214 250.53V222.501L72.8682 222.478ZM72.8448 250.53C74.8319 250.624 76.8423 250.671 78.8294 250.741L85.071 250.881C87.0815 250.998 89.1386 251.372 90.9854 252.167C91.8971 252.564 92.7621 253.078 93.5102 253.733C94.2348 254.364 94.8894 255.182 95.5907 255.977L95.731 256.141H95.9414L102.253 256.094C104.357 256.071 106.461 256.094 108.565 256.024L114.877 255.884C116.887 255.813 118.921 255.767 120.931 255.65V283.048C118.921 282.954 116.887 282.908 114.877 282.814L108.565 282.674C106.461 282.627 104.357 282.627 102.253 282.604L96.1518 282.557C95.4972 281.856 94.8894 281.084 94.0946 280.43C93.253 279.728 92.3179 279.167 91.3127 278.77C89.3257 277.952 87.1983 277.554 85.071 277.554C80.98 277.624 76.9124 277.718 72.8214 277.905V250.507L72.8448 250.53ZM72.8214 277.975C74.8319 278.068 76.8189 278.115 78.8294 278.185L85.071 278.326C87.0815 278.443 89.1386 278.817 90.9854 279.611C91.8971 280.009 92.7621 280.523 93.5102 281.178C94.2348 281.809 94.8894 282.627 95.5907 283.422L95.731 283.585H95.9414L102.253 283.539C104.357 283.515 106.461 283.539 108.565 283.469L114.877 283.328C116.911 283.258 118.921 283.211 120.955 283.095V310.983C118.944 310.89 116.911 310.843 114.877 310.75L108.565 310.609C106.461 310.563 104.357 310.563 102.253 310.539L96.1518 310.492C95.4972 309.791 94.8894 309.02 94.0946 308.365C93.253 307.664 92.3179 307.103 91.3127 306.705C89.3257 305.887 87.1983 305.49 85.071 305.49C80.98 305.56 76.9124 305.653 72.8214 305.84V277.952V277.975ZM72.8214 305.864C74.8319 305.957 76.8423 306.004 78.8294 306.074L85.071 306.214C87.0815 306.331 89.1386 306.705 90.9854 307.5C91.8971 307.898 92.7621 308.412 93.5102 309.066C94.2348 309.698 94.8894 310.516 95.5907 311.311L95.731 311.474H95.9414L102.253 311.428C104.357 311.404 106.461 311.428 108.565 311.357L114.877 311.217C116.911 311.147 118.944 311.1 120.978 310.983V341.28C118.968 341.187 116.911 341.14 114.877 341.046L108.565 340.906C106.461 340.859 104.357 340.859 102.253 340.836L96.1518 340.789C95.4972 340.088 94.8894 339.316 94.0946 338.662C93.253 337.961 92.3179 337.4 91.3127 337.002C89.3257 336.184 87.1983 335.786 85.071 335.786C80.9567 335.857 76.889 335.95 72.7981 336.137V305.84L72.8214 305.864ZM72.7981 336.184C74.8085 336.277 76.8189 336.324 78.8294 336.394L85.071 336.535C87.0815 336.651 89.1386 337.025 90.9854 337.82C91.8971 338.218 92.7621 338.732 93.5102 339.387C94.2348 340.018 94.8894 340.836 95.5907 341.631L95.731 341.794H95.9414L102.253 341.748C104.357 341.724 106.461 341.748 108.565 341.678L114.877 341.537C116.911 341.467 118.944 341.42 120.978 341.303V366.294C118.944 366.2 116.911 366.153 114.877 366.06L108.565 365.92C106.461 365.873 104.357 365.873 102.253 365.849L96.1518 365.803C95.4972 365.101 94.8894 364.33 94.0946 363.675C93.253 362.974 92.3179 362.413 91.3127 362.016C89.3257 361.197 87.1983 360.8 85.071 360.8C80.9567 360.87 76.889 360.964 72.7747 361.151V336.137L72.7981 336.184ZM72.7747 361.197C74.7851 361.291 76.7955 361.338 78.8294 361.408L85.071 361.548C87.0815 361.665 89.1386 362.039 90.9854 362.834C91.8971 363.231 92.7621 363.745 93.5102 364.4C94.2348 365.031 94.8894 365.849 95.5907 366.644L95.731 366.808H95.9414L102.253 366.761C104.357 366.738 106.461 366.761 108.565 366.691L114.877 366.551C116.911 366.481 118.968 366.434 121.002 366.317V391.564C118.968 391.471 116.934 391.424 114.877 391.33L108.565 391.19C106.461 391.143 104.357 391.143 102.253 391.12L96.1518 391.073C95.4972 390.372 94.8894 389.601 94.0946 388.946C93.253 388.245 92.3179 387.684 91.3127 387.286C89.3257 386.468 87.1983 386.071 85.071 386.071C80.9567 386.141 76.8657 386.234 72.7747 386.421V361.174V361.197ZM72.7747 386.445C74.7851 386.538 76.8189 386.585 78.8294 386.655L85.071 386.795C87.0815 386.912 89.1386 387.286 90.9854 388.081C91.8971 388.478 92.7621 388.993 93.5102 389.647C94.2348 390.278 94.8894 391.097 95.5907 391.891L95.731 392.055H95.9414L102.253 392.008C104.357 391.985 106.461 392.008 108.565 391.938L114.877 391.798C116.911 391.728 118.968 391.681 121.025 391.564V416.087C118.991 415.993 116.934 415.947 114.877 415.853L108.565 415.713C106.461 415.666 104.357 415.666 102.253 415.643L96.105 415.596L95.0764 414.731C94.6556 414.404 94.2348 414.053 93.7907 413.796C92.879 413.258 91.8971 412.861 90.8919 412.557C88.8815 411.972 86.8243 411.715 84.7671 411.762C80.7696 411.832 76.7722 411.926 72.7747 412.113V386.398V386.445ZM72.7513 412.183C76.7488 412.37 80.7463 412.463 84.7671 412.533C86.7542 412.604 88.7646 412.837 90.6348 413.422C91.5699 413.726 92.4816 414.1 93.2998 414.591C93.7205 414.848 94.0946 415.128 94.4686 415.456L95.6141 416.461L95.7543 416.578H95.918L102.23 416.531C104.334 416.508 106.438 416.531 108.542 416.461L114.853 416.321C116.911 416.25 118.944 416.204 121.002 416.087V441.334C118.968 441.24 116.911 441.194 114.853 441.1L108.542 440.96C106.438 440.913 104.334 440.913 102.23 440.89L96.0816 440.843L95.053 439.978C94.6323 439.651 94.2115 439.3 93.7673 439.043C92.8556 438.505 91.8738 438.108 90.8685 437.804C88.8581 437.22 86.8009 436.962 84.7438 437.009C80.7463 437.079 76.7254 437.173 72.7279 437.36V412.113L72.7513 412.183ZM72.7279 437.453C76.7254 437.64 80.7463 437.734 84.7438 437.804C86.7308 437.874 88.7412 438.108 90.6114 438.692C91.5465 438.996 92.4582 439.37 93.2764 439.861C93.6972 440.118 94.0712 440.399 94.4452 440.726L95.5907 441.731L95.731 441.848H95.8946L102.206 441.802C104.31 441.778 106.414 441.802 108.518 441.731L114.83 441.591C116.887 441.521 118.944 441.474 121.002 441.357V467.329C118.968 467.236 116.887 467.189 114.83 467.096L108.518 466.955C106.414 466.909 104.31 466.909 102.206 466.885L96.0583 466.838L95.0297 465.973C94.6089 465.646 94.1881 465.296 93.7439 465.038C92.8322 464.501 91.8504 464.103 90.8452 463.799C88.8347 463.215 86.7776 462.958 84.7204 463.005C80.7229 463.075 76.702 463.168 72.6812 463.355V437.383L72.7279 437.453ZM72.7279 463.425C76.7488 463.612 80.7463 463.706 84.7671 463.776C86.7542 463.846 88.7646 464.08 90.6348 464.664C91.5699 464.968 92.4816 465.342 93.2998 465.833C93.7205 466.09 94.0946 466.371 94.4686 466.698L95.6141 467.703L95.7543 467.82H95.918L102.23 467.773C104.334 467.75 106.438 467.773 108.542 467.703L114.853 467.563C116.911 467.493 118.968 467.446 121.025 467.329V492.647C118.968 492.553 116.911 492.506 114.853 492.413L108.542 492.273C106.438 492.226 104.334 492.226 102.23 492.203L96.0816 492.156L95.053 491.291C94.6323 490.964 94.2115 490.613 93.7673 490.356C92.8556 489.818 91.8738 489.421 90.8685 489.117C88.8581 488.532 86.8009 488.275 84.7438 488.322C80.7229 488.392 76.7254 488.486 72.7046 488.673V463.355L72.7279 463.425ZM72.7046 488.743C76.7254 488.93 80.7463 489.023 84.7438 489.093C86.7308 489.164 88.7412 489.397 90.6114 489.982C91.5465 490.286 92.4582 490.66 93.2764 491.151C93.6972 491.408 94.0712 491.688 94.4452 492.016L95.5907 493.021L95.731 493.138H95.8946L102.206 493.091C104.31 493.067 106.414 493.091 108.518 493.021L114.83 492.88C116.887 492.81 118.968 492.764 121.025 492.647V517.894C118.968 517.8 116.911 517.754 114.83 517.66L108.518 517.52C106.414 517.473 104.31 517.473 102.206 517.45L96.0583 517.403L95.0297 516.538C94.6089 516.211 94.1881 515.86 93.7439 515.603C92.8322 515.065 91.8504 514.668 90.8452 514.364C88.8347 513.78 86.7776 513.522 84.7204 513.569C80.6995 513.639 76.6787 513.733 72.6578 513.92V488.673L72.7046 488.743ZM72.7046 514.013C76.7254 514.2 80.7463 514.294 84.7671 514.364C86.7542 514.434 88.7646 514.668 90.6348 515.252C91.5699 515.556 92.4816 515.93 93.2998 516.421C93.7205 516.678 94.0946 516.959 94.4686 517.286L95.6141 518.291L95.7543 518.408H95.918L102.23 518.362C104.334 518.338 106.438 518.362 108.542 518.291L114.853 518.151C116.911 518.081 118.991 518.034 121.048 517.917V543.655C118.991 543.539 116.911 543.492 114.853 543.422L108.542 543.281C106.438 543.235 104.334 543.235 102.23 543.211L96.0816 543.165L95.053 542.3C94.6323 541.972 94.2115 541.622 93.7673 541.365C92.8556 540.827 91.8738 540.429 90.8685 540.126C88.8581 539.541 86.8009 539.284 84.7438 539.331C80.7229 539.401 76.702 539.494 72.6812 539.681V513.943L72.7046 514.013ZM72.6812 539.752C76.702 539.939 80.7229 540.032 84.7671 540.102C86.7542 540.172 88.7646 540.406 90.6348 540.99C91.5699 541.294 92.4816 541.668 93.2998 542.159C93.7205 542.417 94.0946 542.697 94.4686 543.024L95.6141 544.03L95.7543 544.146H95.918L102.23 544.1C104.334 544.076 106.438 544.1 108.542 544.03L114.853 543.889C116.934 543.819 118.991 543.772 121.072 543.655V569.627C119.015 569.51 116.934 569.464 114.853 569.394L108.542 569.253C106.438 569.207 104.334 569.207 102.23 569.183L96.0816 569.137L95.053 568.272C94.6323 567.944 94.2115 567.594 93.7673 567.336C92.8556 566.799 91.8738 566.401 90.8685 566.097C88.8581 565.513 86.8009 565.256 84.7438 565.303C80.7229 565.373 76.6787 565.466 72.6578 565.653V539.681L72.6812 539.752ZM72.6578 565.723C76.6787 565.91 80.7229 566.004 84.7438 566.074C86.7308 566.144 88.7412 566.378 90.6114 566.962C91.5465 567.266 92.4582 567.64 93.2764 568.131C93.6972 568.388 94.0712 568.669 94.4452 568.996L95.5907 570.001L95.731 570.118H95.8946L102.206 570.072C104.31 570.048 106.414 570.072 108.518 570.001L114.83 569.861C116.911 569.791 118.991 569.744 121.072 569.627V592.958C118.991 592.841 116.911 592.794 114.83 592.724L108.518 592.584C106.414 592.537 104.31 592.537 102.206 592.514L96.0583 592.467L95.0297 591.602C94.6089 591.275 94.1881 590.924 93.7439 590.667C92.8322 590.129 91.8504 589.732 90.8452 589.428C88.8347 588.843 86.7776 588.586 84.7204 588.633C80.6995 588.703 76.6553 588.797 72.6344 588.984V565.653L72.6578 565.723ZM72.611 679.5H121.165V682.656H72.611V679.5ZM72.611 678.565V664.702H121.165V678.565H72.611ZM72.611 663.767V661.71H121.142V663.767H72.611ZM72.611 660.775V657.619H121.142V660.775H72.611ZM72.611 656.684V641.021H121.118V656.684H72.611ZM72.6344 640.086V638.029H121.142V640.086H72.6344ZM72.6344 637.07V633.914H121.142V637.07H72.6344ZM72.6344 632.979V618.415H121.118V632.979H72.6344ZM72.6344 617.48V615.423H121.118V617.48H72.6344ZM72.6344 614.465V611.309H121.118V614.465H72.6344ZM72.6344 610.374V589.054C76.6787 589.241 80.7229 589.334 84.7438 589.404C86.7308 589.475 88.7412 589.708 90.6114 590.293C91.5465 590.597 92.4582 590.971 93.2764 591.462C93.6972 591.719 94.0712 591.999 94.4452 592.327L95.5907 593.332L95.731 593.449H95.8946L102.206 593.402C104.31 593.379 106.414 593.402 108.518 593.332L114.83 593.192C116.911 593.121 118.991 593.075 121.072 592.958V610.327H72.611L72.6344 610.374ZM120.861 120.226C116.77 120.039 112.656 119.946 108.565 119.876C104.451 119.782 100.336 119.806 96.2219 119.759C95.7543 118.824 95.3102 117.889 94.7725 116.93C94.2115 115.878 93.4868 114.92 92.6686 114.078C91.0088 112.372 88.788 111.226 86.4269 110.852C85.8425 110.759 85.2347 110.712 84.6502 110.735H82.9203L79.4839 110.829C77.3098 110.899 75.1124 110.946 72.9383 111.063V82.4491C76.9592 82.5893 80.9567 82.6595 84.9541 82.7062L97.1336 82.7997L109.313 82.7296C113.147 82.6828 117.004 82.6127 120.838 82.4724V120.203L120.861 120.226ZM72.611 683.591H121.165V685.648H72.611V683.591ZM120.838 70.8307V82.4724C117.004 82.3322 113.17 82.262 109.313 82.2153L97.1336 82.1452L84.9541 82.2387C80.9567 82.2854 76.9592 82.3556 72.9617 82.4958V70.854H120.861L120.838 70.8307ZM56.2003 55.4485V50.6562L58.164 49.6744V709.118H59.0991V49.1835L59.8705 48.7861V47.1497H61.4602V48.8796L62.3251 49.2069V709.586H63.2602V49.5809L66.4161 50.7497V55.3784L71.1383 57.2953V70.8307H72.1903L72.5409 711.433V686.606H121.118V716.833C111.604 715.991 102.09 715.056 92.5751 714.004C79.2034 712.555 65.8551 710.965 52.5535 709.118V57.272L56.1536 55.4252L56.2003 55.4485ZM5.70584 709.118C9.49293 708.137 23.3555 706.337 32.9168 707.342L52.5769 710.357V709.142C65.8784 711.106 79.2034 712.812 92.5517 714.355C106.555 715.945 120.557 717.3 134.607 718.446C162.683 720.713 190.852 722.116 219.022 721.672C234.801 721.368 250.581 720.83 266.337 720.082V720.176H267.038V720.059C279.171 719.474 291.28 718.75 303.413 717.885C308.018 717.558 312.624 717.207 317.205 716.833C326.65 716.085 336.071 715.243 345.492 714.308C357.04 713.139 368.588 711.807 380.113 710.311H380.277C382.053 710.054 383.854 709.82 385.63 709.586V710.731L387.243 710.521C387.454 710.498 407.698 707.763 410.877 707.646C426.002 707.085 431.753 708.254 433.857 709.002C438.743 710.755 438.743 710.919 438.743 713.373V713.49C438.743 714.145 438.743 714.706 438.79 715.196C438.836 716.342 438.86 716.903 438.626 717.371C438.533 717.23 438.416 717.113 438.275 717.02C437.855 716.622 437.317 716.365 436.803 716.132C435.751 715.687 434.629 715.36 433.506 715.103C431.262 714.565 428.995 714.191 426.704 713.794C422.169 712.859 417.493 713.069 412.911 713.35C403.701 714.004 394.56 715.126 385.396 716.178L357.928 719.498C348.764 720.597 339.624 721.695 330.437 722.584C312.086 724.267 293.665 725.249 275.244 725.95C256.822 726.628 238.378 727.025 219.957 727.119C210.746 727.189 201.512 727.236 192.302 727.166C183.091 727.119 173.857 726.979 164.647 726.675C146.225 726.043 127.874 724.22 109.523 722.35C91.1724 720.433 72.8682 718.282 54.5639 715.991L40.8416 714.261L33.9921 713.326C31.7012 712.999 29.3868 712.859 27.0725 712.812C22.4672 712.742 17.8385 712.976 13.2566 713.467C10.9657 713.724 8.67473 714.004 6.40715 714.495C5.28505 714.776 4.16295 715.15 3.20449 715.781C3.06423 715.874 2.94734 715.991 2.80708 716.108V711.526C2.80708 711.339 2.9941 709.796 5.68246 709.072L5.70584 709.118ZM2.83046 716.903V716.202C2.97072 716.085 3.08761 715.968 3.22787 715.874C4.18633 715.243 5.30843 714.893 6.40715 714.612C8.65135 714.145 10.9657 713.864 13.2333 713.63C17.8152 713.186 22.4205 712.976 27.0257 713.093C31.631 713.139 36.1662 714.051 40.7481 714.635L54.4471 716.482C72.7279 718.843 91.0556 721.041 109.383 723.004C127.734 724.921 146.085 726.792 164.53 727.493C173.74 727.82 182.974 727.984 192.185 728.054C201.419 728.147 210.629 728.147 219.863 728.101C238.308 727.937 256.752 727.516 275.173 726.768C293.595 726.02 312.039 724.968 330.39 723.238C339.577 722.327 348.718 721.204 357.882 720.082L385.326 716.669C394.467 715.547 403.63 714.332 412.818 713.607C417.4 713.28 422.052 713.046 426.587 713.934C428.854 714.308 431.145 714.659 433.39 715.173C434.512 715.43 435.634 715.734 436.686 716.178C437.2 716.412 437.738 716.669 438.158 717.043C438.299 717.16 438.392 717.277 438.509 717.394C438.392 717.651 438.205 717.885 437.901 718.189C437.504 718.586 436.803 719.217 435.984 719.942C435.938 719.849 435.914 719.732 435.844 719.638C435.54 719.147 435.049 718.797 434.558 718.516C434.067 718.235 433.506 718.025 432.969 717.861C430.771 717.184 428.48 716.88 426.189 716.646C423.898 716.412 421.607 716.295 419.317 716.225C417.026 716.155 414.735 716.108 412.42 716.272C407.838 716.599 403.28 717.113 398.721 717.604L385.046 719.171C366.812 721.321 348.601 723.542 330.343 725.389C321.203 726.301 312.086 727.142 302.922 727.68C293.758 728.264 284.594 728.615 275.431 728.942C257.08 729.55 238.752 729.877 220.401 729.994C202.05 730.134 183.699 730.181 165.371 729.597C156.207 729.27 147.067 728.545 137.927 727.797C128.786 727.025 119.646 726.16 110.505 725.295C92.2478 723.519 73.9903 721.602 55.7562 719.498C51.1976 718.984 46.6391 718.446 42.104 717.838C39.8364 717.534 37.5688 717.113 35.2778 716.88C32.9869 716.622 30.6959 716.459 28.405 716.365C23.8231 716.202 19.2178 716.319 14.6359 716.622C12.3449 716.81 10.0306 716.856 7.80978 717.417C6.71105 717.674 5.56558 718.095 4.74738 718.913C4.60712 719.077 4.49023 719.264 4.39672 719.451L3.22787 718.235C3.13436 718.095 2.7837 717.558 2.7837 716.926L2.83046 716.903ZM4.44348 719.428C4.53699 719.241 4.65387 719.054 4.79413 718.89C5.61233 718.095 6.75781 717.698 7.85653 717.441C10.0774 716.903 12.3917 716.88 14.6826 716.716C19.2645 716.459 23.8465 716.342 28.4284 716.576C30.7193 716.693 33.0103 716.856 35.2778 717.137C37.5688 717.394 39.813 717.815 42.0806 718.142C46.6391 718.797 51.1743 719.358 55.7328 719.919C73.9669 722.093 92.2244 724.033 110.482 725.88C119.622 726.792 128.763 727.656 137.903 728.475C147.044 729.246 156.207 730.018 165.395 730.368C183.746 730.999 202.12 731.023 220.471 730.929C238.822 730.766 257.173 730.368 275.524 729.714C284.688 729.363 293.875 728.989 303.039 728.381C312.203 727.797 321.343 726.932 330.484 725.997C348.741 724.103 366.952 721.836 385.186 719.615L398.838 717.932C403.397 717.394 407.955 716.856 412.514 716.482C414.805 716.295 417.096 716.342 419.387 716.389C421.678 716.435 423.969 716.529 426.26 716.739C428.527 716.95 430.818 717.23 433.015 717.885C433.553 718.048 434.114 718.235 434.605 718.539C435.096 718.797 435.587 719.147 435.891 719.638C435.961 719.732 435.984 719.825 436.031 719.942C435.166 720.69 434.184 721.532 433.273 722.326C433.273 721.789 432.992 721.275 432.595 720.901C432.174 720.503 431.66 720.223 431.145 720.012C429.018 719.147 426.727 718.937 424.46 718.726C419.924 718.423 415.366 718.259 410.831 718.773C401.784 719.591 392.737 720.573 383.713 721.532L329.525 727.493C320.478 728.428 311.455 729.433 302.408 730.111C293.361 730.719 284.267 730.976 275.197 731.257C257.033 731.701 238.869 731.934 220.681 732.051C202.517 732.192 184.33 732.285 166.166 731.958C157.096 731.794 148.026 731.116 138.979 730.438C129.932 729.737 120.861 728.942 111.814 728.101C93.7206 726.417 75.6501 724.571 57.603 722.443C53.0912 721.906 48.5794 721.391 44.091 720.667C39.626 719.872 35.0908 719.334 30.5323 719.147C25.9971 718.937 21.4386 719.077 16.9035 719.358L13.5138 719.591C12.3917 719.662 11.2462 719.732 10.1241 719.872C9.02538 720.059 7.83315 720.293 6.94483 721.017C6.75781 721.181 6.59417 721.368 6.50066 721.602L4.44348 719.474V719.428Z" fill="#D7B56D"/>
<path d="M215.186 185.588C215.186 185.588 212.848 215.955 246.394 259.062C299.53 316.383 296.491 377.701 250.976 422.772C281.693 379.104 277.252 330.199 246.628 295.694C200.668 245.153 205.297 216.726 215.186 185.541" stroke="#D4B465" stroke-width="1.51951" stroke-miterlimit="10"/>
<path d="M205.416 228.323C206.515 228.58 184.189 267.199 221.312 306.683C250.487 336.255 267.833 373.284 240.856 431.143C275.711 388.83 281.041 343.151 234.263 287.42C219.419 268.134 209.296 254.014 205.439 228.393" stroke="#D4B465" stroke-width="1.51951" stroke-miterlimit="10"/>
<path d="M188.816 273.929C177.993 309.275 175.795 344.223 189.424 378.471C200.341 403.438 212.965 422.724 225.916 440.934L226.126 440.584C256.633 392.988 231.269 354.205 199.102 321.945C199.944 340.647 204.175 359.231 216.448 377.372C229.82 397.921 238.984 412.975 228.511 433.243C205.227 405.238 193.515 381.51 188.723 357.174C183.627 326.106 183.977 295.599 194.941 266.261C199.383 287.043 211.142 306.236 228.791 324.143C259.205 356.543 254.202 404.536 229.142 444.581C229.142 444.628 229.002 444.792 228.932 445.025C231.526 448.672 234.168 452.249 236.763 455.896C250.322 473.499 249.62 488.554 242.046 502.393C237.698 489.535 231.667 480.746 221.661 468.987C165.58 405.121 154.476 334.054 188.863 273.929" stroke="#D4B465" stroke-width="1.51951" stroke-miterlimit="10"/>
<path d="M233.21 530.046C227.179 514.898 218.646 500.778 206.841 487.921C147.416 422.676 140.754 353.222 176.895 290.618C164.271 324.515 156.744 361.544 181.991 418.631C191.552 438.876 205.274 456.409 219.815 474.549C242.841 500.919 241.509 516.02 233.187 530.093" stroke="#D4B465" stroke-width="1.51951" stroke-miterlimit="10"/>
</g>
<defs>
<clipPath id="clip0_930_61">
<rect width="441.616" height="928" fill="white"/>
</clipPath>
</defs>
</svg>
