<svg width="209" height="142" viewBox="0 0 209 142" fill="none" xmlns="http://www.w3.org/2000/svg">
<path d="M118.479 77.6668C115.019 76.1338 112.049 74.0051 109.202 71.5085C107.573 74.8986 105.663 78.0522 102.992 80.7503C100.469 77.9997 98.4801 74.9687 96.842 71.5435C93.995 74.0139 91.0253 76.1776 87.5651 77.6756C86.2336 74.2153 85.6204 70.6237 85.3576 66.8832C81.8273 68.0833 78.2707 68.9242 74.4513 68.9593C74.5476 65.1662 75.3448 61.6096 76.5274 58.1494C74.679 57.8866 72.8569 57.6851 71.0611 57.3434C69.2828 57.0018 67.5483 56.4674 65.7262 55.9944C67.2768 52.4378 69.3967 49.4506 71.9196 46.5861C68.5119 45.0005 65.4459 42.9944 62.6777 40.4277C65.4109 37.826 68.5119 35.8462 71.8408 34.2957C70.6669 32.7451 69.4843 31.326 68.4594 29.8018C67.452 28.2863 66.611 26.6744 65.6386 25.01C69.1952 23.6259 72.7693 22.9864 76.5274 22.7849C75.3448 19.2546 74.5301 15.698 74.4162 11.8962C78.2181 11.8962 81.7659 12.7547 85.3225 13.9548C85.5853 10.2493 86.181 6.65765 87.5301 3.16239C90.9552 4.66036 93.96 6.77153 96.7281 9.24188C97.7005 7.57746 98.5415 5.94809 99.5489 4.45012C100.556 2.93462 101.721 1.53301 102.895 0C105.628 2.76818 107.556 5.89553 109.141 9.22436C110.639 8.08555 112.076 6.92046 113.591 5.87801C115.107 4.85308 116.736 4.00335 118.383 3.01346C119.82 6.64013 120.407 10.2318 120.643 13.9373C124.235 12.7547 127.774 11.8787 131.549 11.8787C131.479 15.6542 130.647 19.2108 129.456 22.7674C133.196 22.9952 136.753 23.6084 140.231 24.9574C138.733 28.4352 136.586 31.3873 134.099 34.2168C137.462 35.8988 140.572 37.7734 143.262 40.3927C141.956 41.7768 140.493 42.8806 138.925 43.8354C137.375 44.7902 135.816 45.7013 134.177 46.6737C136.534 49.4418 138.706 52.3765 140.204 55.8542C136.744 57.2208 133.188 57.799 129.429 58.0442C130.63 61.5745 131.436 65.1311 131.523 68.933C127.783 68.9505 124.244 68.0745 120.617 66.8569C120.389 70.5449 119.793 74.119 118.427 77.6668L118.479 77.6843V77.6668ZM79.8738 40.3489C79.646 40.2175 79.427 40.051 79.1817 39.9196C77.1581 38.886 75.3798 37.5106 73.7417 35.9513C73.2599 35.5046 72.9007 35.4695 72.4102 35.7499C70.9472 36.5908 69.458 37.3967 68.0126 38.2903C67.0227 38.9035 66.0854 39.6218 65.1306 40.2963C65.2269 40.4453 65.262 40.5066 65.3145 40.5416C67.6009 42.3374 70.0099 43.9055 72.6642 45.0881C73.111 45.2896 73.3212 45.202 73.6541 44.9041C74.3461 44.2646 75.0557 43.6339 75.8266 43.0733C77.1406 42.1184 78.5159 41.2424 79.9 40.3051L79.8825 40.3401L79.8738 40.3489ZM103.018 2.47034C100.959 4.9582 99.3737 7.64754 98.1735 10.3106C99.873 12.6495 101.502 14.9096 103.132 17.161C103.211 17.0296 103.316 16.8456 103.412 16.6704C104.498 14.6293 105.847 12.7634 107.45 11.1165C107.897 10.6522 107.915 10.2931 107.652 9.76748C106.382 7.20078 104.936 4.77424 103.009 2.47034H103.027H103.018ZM98.1735 70.5011C99.4262 73.1904 100.959 75.906 103.07 78.3413C103.649 77.5704 104.209 76.9397 104.638 76.2301C105.707 74.4869 106.732 72.6911 107.74 70.904C107.924 70.5887 108.02 70.247 107.643 69.8703C106.163 68.3724 104.928 66.6729 103.868 64.8421C103.622 64.4128 103.36 63.9836 103.158 63.6419C101.511 65.9195 99.8993 68.1358 98.1998 70.4923H98.1823L98.1735 70.5011ZM126.171 40.4978C128.527 41.6717 130.682 43.3186 132.732 45.1407C132.846 45.237 133.179 45.237 133.345 45.1407C134.467 44.5975 135.605 44.0719 136.657 43.4149C138.137 42.4951 139.556 41.4702 141.072 40.4453C138.654 38.448 136.131 36.9325 133.459 35.6535C133.047 35.452 132.82 35.5221 132.522 35.8199C132.11 36.2317 131.681 36.6259 131.217 36.9763C129.57 38.1501 127.888 39.2977 126.206 40.4715L126.171 40.5066V40.4978ZM94.1702 18.9305C94.249 18.5538 94.3366 18.2385 94.3717 17.9231C94.5732 15.7331 95.1426 13.6394 95.9047 11.5983C96.1062 11.0903 96.0886 10.7398 95.6594 10.4157C94.179 9.2594 92.6897 8.07679 91.1742 6.97302C90.3508 6.37733 89.4485 5.90429 88.4762 5.29108C88.2484 6.21089 87.9856 6.97302 87.8629 7.76142C87.5476 9.85508 87.2848 11.9487 87.0045 14.0424C86.9519 14.4541 87.1534 14.6556 87.4863 14.8483C89.0718 15.7243 90.6662 16.6091 92.2167 17.5377C92.8737 17.9319 93.4694 18.4312 94.1614 18.9218L94.179 18.9393L94.1702 18.9305ZM111.866 18.9305C112.146 18.7466 112.33 18.6502 112.488 18.5188C114.301 17.0208 116.307 15.8294 118.471 14.8746C119.084 14.6118 119.145 14.2526 119.084 13.7183C118.917 12.3167 118.786 10.8975 118.558 9.51344C118.33 8.12935 117.963 6.7803 117.638 5.29984C117.13 5.58017 116.701 5.79041 116.307 6.04445C114.117 7.35846 112.023 8.83015 110.21 10.661C110.078 10.8099 109.982 11.1428 110.043 11.318C110.806 13.2627 111.331 15.26 111.594 17.3187C111.664 17.8267 111.76 18.3436 111.857 18.913L111.874 18.9305H111.866ZM117.603 75.5469C117.919 74.1978 118.225 73.0765 118.427 71.9202C118.69 70.3083 118.891 68.6614 119.084 67.0233C119.154 66.5415 119.084 66.1823 118.506 65.9195C117.288 65.3939 116.114 64.7457 114.975 64.0536C113.924 63.4142 112.952 62.6345 111.892 61.9074C111.822 62.1089 111.725 62.2666 111.708 62.433C111.506 64.8421 110.946 67.146 110.043 69.3885C109.912 69.7214 109.965 69.9842 110.254 70.2295C111.524 71.2544 112.759 72.3407 114.056 73.2955C115.124 74.0839 116.316 74.7497 117.586 75.5556V75.5381L117.603 75.5469ZM88.4586 75.4768C88.9404 75.214 89.2646 75.03 89.5799 74.8548C91.805 73.5671 93.811 72.0166 95.7295 70.3259C96.0887 69.993 96.0711 69.7039 95.9397 69.2396C95.4316 67.4613 94.9674 65.6655 94.5206 63.8697C94.3542 63.2302 94.2928 62.5557 94.179 61.8286C94.0125 61.9249 93.9337 61.9775 93.8636 62.0301C92.0503 63.5981 90.0267 64.8508 87.8367 65.8057C87.1446 66.1035 86.9169 66.4627 87.0132 67.1547C87.2585 68.9505 87.4775 70.7639 87.7753 72.5422C87.9243 73.497 88.2221 74.4343 88.4849 75.4768L88.4674 75.4943L88.4586 75.4768ZM124.489 49.1966C124.568 49.3805 124.585 49.5119 124.673 49.6083C126.32 51.518 127.537 53.708 128.624 55.9856C128.772 56.301 128.956 56.4499 129.316 56.4149C130.682 56.2835 132.049 56.2134 133.398 56.0031C134.764 55.7929 136.096 55.425 137.454 55.1622C137.979 55.0658 138.014 54.803 137.769 54.3913C137.506 53.9445 137.279 53.489 136.963 53.0773C135.614 51.2639 134.23 49.4506 132.828 47.6723C132.697 47.5059 132.32 47.3745 132.136 47.4445C129.684 48.3644 127.178 48.9951 124.489 49.2228V49.2053V49.1966ZM81.5645 31.6151C81.5294 31.5012 81.5294 31.4662 81.4944 31.4311C79.9088 29.3725 78.4283 27.2263 77.456 24.8085C77.3246 24.4669 77.0793 24.3618 76.7464 24.4143C74.7491 24.6421 72.7431 24.8611 70.7633 25.1414C69.8435 25.2728 68.9499 25.5707 67.9601 25.8159C68.1703 26.1926 68.3367 26.4554 68.4857 26.7357C69.7909 29.0572 71.3677 31.1508 73.1635 33.0956C73.4614 33.4109 73.7242 33.4547 74.1184 33.3058C76.5099 32.3685 78.9627 31.7903 81.5645 31.5888L81.5469 31.6063L81.5645 31.6151ZM124.41 31.5976C126.714 31.7991 128.825 32.1582 130.805 32.9642C132.005 33.4547 132.811 33.4284 133.704 32.2546C135.124 30.3799 136.551 28.514 137.743 26.4729C138.006 26.0262 137.971 25.7984 137.427 25.6495C134.843 24.975 132.224 24.4669 129.535 24.3968C128.956 24.3968 128.729 24.607 128.466 25.0713C127.511 26.7883 126.486 28.479 125.487 30.1609C125.19 30.6427 124.813 31.0632 124.401 31.6151L124.419 31.5976H124.41ZM81.4331 49.1615C81.5119 49.2141 81.4506 49.1615 81.3805 49.144C78.9715 48.9951 76.65 48.4344 74.4075 47.5584C73.768 47.3131 73.3212 47.3745 72.927 47.9176C72.7168 48.2154 72.4627 48.4782 72.2175 48.7586C70.6494 50.5193 69.3529 52.4991 68.1615 54.5402C68.0126 54.803 67.9951 55.0045 68.3893 55.0833C69.0113 55.2147 69.6245 55.425 70.2552 55.5301C72.1036 55.8279 73.9607 56.0907 75.8266 56.3711C76.834 56.52 77.3596 56.1871 77.8502 55.1885C78.8839 53.1123 80.2066 51.1676 81.4243 49.1615H81.4331ZM120.897 65.0961C123.63 66.1473 126.617 66.8919 129.797 67.2073C129.5 63.931 128.746 60.9263 127.59 57.9829C124.769 58.0793 122.106 57.5011 119.566 56.8266C120.012 59.5597 120.442 62.2491 120.88 65.0961H120.897ZM120.713 15.7681C120.564 18.5538 120.249 21.2695 119.347 24.0376C122.132 23.2317 124.813 22.7324 127.599 22.8025C128.737 19.8503 129.526 16.8369 129.771 13.7095C128.799 13.4993 124.051 14.4366 120.713 15.7681ZM76.0982 67.1722C76.4748 67.1722 76.6939 67.2073 76.9041 67.1722C79.5934 66.7605 82.2302 66.1999 84.7794 65.245C85.2437 65.0786 85.3926 64.8683 85.4364 64.369C85.5503 62.9148 85.7167 61.4694 85.927 60.0328C86.0934 58.9641 86.3737 57.9216 86.619 56.8529C86.5665 56.8529 86.5051 56.8003 86.4351 56.8178C86.2861 56.8529 86.1547 56.8879 86.0058 56.9317C83.7457 57.5449 81.4769 58.0355 79.1204 57.9654C78.5597 57.9654 78.332 58.1932 78.2006 58.6399C77.9203 59.5335 77.5874 60.4182 77.3771 61.338C76.9304 63.2302 76.5537 65.1574 76.1069 67.1722L76.0894 67.1547L76.0982 67.1722ZM76.177 13.5606C76.2471 13.9548 76.3084 14.1563 76.3259 14.3665C76.6413 17.0646 77.2808 19.6926 78.2356 22.2418C78.4021 22.6886 78.5948 22.8375 79.0591 22.82C81.0388 22.7674 82.9836 23.1178 84.8933 23.5821C85.4539 23.7135 86.0321 23.8624 86.5577 23.9938C86.2774 22.6448 85.962 21.3921 85.7868 20.1044C85.5853 18.8166 85.5415 17.5026 85.3576 16.2149C85.3225 15.9871 85.0159 15.6718 84.7619 15.6017C82.931 15.0586 81.0914 14.5154 79.2255 14.0512C78.2707 13.8234 77.2633 13.7358 76.1595 13.5694L76.177 13.5518V13.5606ZM131.243 34.8125C131.015 34.6986 130.901 34.611 130.761 34.5672C128.632 33.8226 126.442 33.3671 124.217 33.1306C123.411 33.0518 122.719 33.1656 122.071 33.8577C121.344 34.6286 120.442 35.2418 119.548 35.855C118.514 36.547 117.419 37.1602 116.351 37.7997C116.762 37.9311 117.174 37.8523 117.551 37.9311C119.592 38.3954 121.607 38.9035 123.648 39.3502C123.963 39.4203 124.357 39.4203 124.62 39.2802C126.039 38.4918 127.458 37.6858 128.808 36.7923C129.666 36.2317 130.402 35.5046 131.243 34.8125ZM95.274 28.952C95.274 28.952 95.3703 28.8995 95.4229 28.8732C95.3878 28.7068 95.3528 28.5316 95.309 28.3651C94.7659 26.324 94.2578 24.2654 94.2403 22.1192C94.2403 21.7075 94.0563 21.1994 93.7585 20.9366C92.1466 19.4211 90.2982 18.2034 88.3535 17.1435C87.9593 16.9332 87.5301 16.7668 86.9519 16.504C87.0307 17.1435 87.1183 17.5902 87.1359 18.037C87.2322 20.2095 87.7929 22.2856 88.5024 24.3267C88.5988 24.607 88.8791 24.8698 89.1419 25.0363C90.7275 26.0087 92.3393 26.9285 93.9162 27.9183C94.398 28.2162 94.8097 28.6104 95.2652 28.952H95.274ZM126.88 56.4674C126.828 56.2397 126.81 56.1521 126.784 56.0907C125.68 53.6992 124.226 51.5443 122.448 49.5995C122.264 49.398 121.94 49.3192 121.659 49.2842C120.179 49.0739 118.69 48.9075 117.227 48.6622C116.324 48.5133 115.431 48.233 114.362 47.9702C114.756 48.4958 115.054 48.8462 115.317 49.2404C116.324 50.8347 117.358 52.4028 118.269 54.0496C118.567 54.5928 118.847 54.9519 119.425 55.1008C120.757 55.4425 122.097 55.8455 123.446 56.1083C124.55 56.3185 125.689 56.3535 126.889 56.4849V56.4674H126.88ZM131.313 46.1305C131.085 45.8677 130.998 45.7539 130.901 45.6838C129.307 44.5274 127.704 43.3799 126.109 42.2586C124.936 41.4351 123.753 41.2337 122.334 41.8293C121.248 42.2761 120.03 42.425 118.856 42.6353C118.033 42.8017 117.192 42.8806 116.289 42.9944C116.438 43.0908 116.517 43.1609 116.622 43.2047C118.83 44.3435 120.871 45.6925 122.667 47.4183C122.833 47.5672 123.131 47.6636 123.359 47.646C124.533 47.5497 125.715 47.4796 126.854 47.2518C128.308 46.954 129.736 46.5247 131.322 46.1305V46.113L131.313 46.1305ZM95.4579 51.8158C95.2126 51.9122 95.1426 51.9122 95.0988 51.9472C93.2854 53.5328 91.2619 54.7505 89.0981 55.7841C88.8528 55.898 88.5725 56.1959 88.5024 56.4587C88.0206 58.2895 87.5476 60.1291 87.1534 61.9775C87.0045 62.6696 87.0395 63.4142 86.9869 64.2551C87.3286 64.1237 87.5651 64.0712 87.7491 63.9573C89.466 62.871 91.1918 61.8023 92.8562 60.646C93.6271 60.1029 94.2753 59.4721 94.2928 58.307C94.2928 56.958 94.6257 55.6089 94.8535 54.2511C94.9849 53.4627 95.2302 52.7006 95.4492 51.8158H95.4667H95.4579ZM119.119 16.4427C116.43 17.7129 114.073 19.1758 112.085 21.1731C111.936 21.322 111.883 21.6199 111.857 21.8651C111.647 23.4157 111.463 24.9662 111.217 26.4992C111.086 27.3402 110.806 28.1636 110.578 29.1185C110.937 28.8382 111.217 28.6367 111.48 28.4264C113.18 27.0774 114.993 25.9035 116.981 25.0188C117.209 24.9224 117.463 24.6421 117.542 24.4056C117.954 23.0039 118.401 21.5848 118.698 20.1569C118.944 18.9831 118.996 17.7829 119.145 16.4514H119.128L119.119 16.4427ZM119.101 64.3427C119.005 63.4492 118.9 62.6608 118.839 61.8899C118.69 59.9627 118.111 58.1318 117.507 56.301C117.454 56.1345 117.244 55.9856 117.078 55.8893C115.545 54.9695 113.977 54.0584 112.461 53.1211C111.822 52.7269 111.261 52.2275 110.613 51.772C110.578 51.9034 110.56 51.956 110.578 51.9823C111.349 54.3037 111.813 56.6952 111.866 59.148C111.866 59.332 111.997 59.5597 112.128 59.6911C112.724 60.2518 113.328 60.7949 113.977 61.2855C115.527 62.4681 117.192 63.4755 119.101 64.334V64.3427ZM126.977 24.5983C126.977 24.5983 126.828 24.4318 126.766 24.3705C126.171 24.4406 125.584 24.5019 124.988 24.537C122.947 24.6684 121.002 25.194 119.075 25.851C118.847 25.9298 118.549 26.1313 118.462 26.3415C117.525 28.5316 116.219 30.4763 114.721 32.3071C114.625 32.4385 114.572 32.605 114.459 32.8678C116.981 32.0794 119.399 31.6501 121.887 31.5187C122.132 31.5187 122.43 31.2559 122.614 31.0545C123.14 30.4413 123.683 29.8193 124.13 29.1448C125.12 27.6643 126.039 26.1313 126.977 24.6158V24.5983ZM79.2255 24.4143C79.3219 24.7122 79.3744 24.9224 79.4533 25.1064C80.4607 27.1475 81.7309 29.0309 83.2113 30.7741C83.6231 31.2559 84.0874 31.545 84.7969 31.5625C85.9532 31.5976 87.0833 31.8078 88.2221 32.0093C89.3434 32.2195 90.4472 32.5174 91.6298 32.7977C91.5509 32.6663 91.5334 32.5875 91.4633 32.5174C90.0617 30.8004 88.774 28.9871 87.9067 26.946C87.495 25.9736 86.7241 25.7108 85.8832 25.448C85.6379 25.3779 85.3926 25.3166 85.1386 25.2465C83.2289 24.7384 81.3016 24.3705 79.208 24.388L79.2255 24.4056V24.4143ZM100.399 53.7781C100.399 53.7781 100.302 53.8131 100.285 53.8306C99.1634 56.0207 97.8144 58.0442 96.1675 59.8751C95.9047 60.1554 95.7207 60.6372 95.7383 61.0139C95.7908 62.0213 95.9047 63.02 96.1149 63.9923C96.4478 65.5078 96.8771 66.9883 97.2888 68.5739C97.5341 68.4074 97.6479 68.3636 97.7355 68.276C99.4963 66.2787 100.968 64.1062 102.037 61.6884C102.107 61.522 102.089 61.2942 102.037 61.0927C101.704 59.8751 101.292 58.6837 101.012 57.4661C100.731 56.2484 100.6 55.0133 100.39 53.7781H100.407H100.399ZM100.434 27.0336C100.504 26.6219 100.583 26.2277 100.618 25.8159C100.819 23.7223 101.292 21.6987 102.019 19.7189C102.098 19.5087 102.098 19.2108 102.019 19.0094C101.117 17.0033 99.9606 15.1549 98.5765 13.4555C98.2349 13.0437 97.8319 12.6671 97.4027 12.1853C97.1223 13.0437 96.807 13.7533 96.6581 14.5067C96.3427 16.0747 96.1938 17.6691 95.8346 19.2196C95.6244 20.1394 95.9485 20.7001 96.5442 21.3308C97.1574 21.9878 97.718 22.6973 98.2086 23.4595C98.9795 24.6158 99.689 25.7984 100.451 27.0336H100.434ZM79.1291 56.3448C79.4883 56.3623 79.6723 56.3798 79.8387 56.3798C82.0988 56.2835 84.2713 55.8192 86.4263 55.1622C87.1359 54.9519 87.5826 54.549 87.9243 53.8569C88.5988 52.5079 89.4222 51.2201 90.2282 49.9324C90.6399 49.2754 91.148 48.6797 91.7086 47.9351C91.218 48.0665 90.8852 48.1366 90.5698 48.233C88.5638 48.8462 86.4876 49.1265 84.394 49.2842C84.1312 49.3017 83.7983 49.4506 83.6231 49.6258C82.274 51.0274 81.1702 52.5955 80.2329 54.2686C79.8738 54.9081 79.5409 55.5739 79.1291 56.3448ZM74.8805 45.8502C74.8805 45.8502 74.9331 45.9991 74.9594 46.078C75.4412 46.2444 75.9142 46.4722 76.4135 46.5861C78.2444 46.9627 80.084 47.3482 81.9324 47.6548C82.4405 47.7336 82.9661 47.7687 83.5004 47.3219C84.8057 46.2357 86.1722 45.2458 87.5563 44.2734C88.2484 43.7916 89.0193 43.4324 89.7464 43.0207C89.3346 42.8893 88.9404 42.9506 88.5725 42.8718C86.4964 42.4075 84.4202 41.9169 82.3441 41.4527C82.0988 41.4001 81.7835 41.3738 81.5732 41.4702C80.5833 41.9607 79.5672 42.4425 78.6386 43.0645C77.3333 43.923 76.1332 44.9129 74.8805 45.8327V45.8502ZM74.9418 34.6811V34.8914C75.2835 35.1892 75.6339 35.4695 75.9668 35.7674C77.6662 37.2303 79.5409 38.4217 81.582 39.324C81.7835 39.4203 82.0725 39.4028 82.3091 39.359C83.5267 39.0612 84.7268 38.6845 85.9708 38.4042C87.1709 38.1414 88.3885 37.9924 89.6588 37.7822C89.5624 37.7034 89.4748 37.5982 89.3784 37.5544C87.3724 36.5207 85.4714 35.3118 83.8421 33.735C83.2639 33.1744 82.5719 33.043 81.836 33.1569C80.5658 33.3584 79.2956 33.5336 78.0604 33.8139C77.0092 34.0416 75.9843 34.4096 74.9506 34.7074V34.6899L74.9418 34.6811ZM105.62 26.9372C105.733 26.8671 105.786 26.8584 105.804 26.8233C106.89 24.8173 108.09 22.8988 109.64 21.2081C109.973 20.8665 110.35 20.481 110.254 19.8591C109.991 18.2122 109.807 16.5653 109.509 14.9184C109.343 14.0249 109.001 13.1927 108.721 12.3167C108.624 12.2641 108.51 12.2028 108.405 12.1502C108.256 12.3955 108.143 12.6583 107.959 12.8773C106.496 14.6731 105.173 16.5653 104.157 18.6765C103.946 19.1232 103.955 19.4824 104.087 19.9467C104.533 21.6724 104.945 23.4244 105.339 25.1677C105.471 25.7459 105.523 26.324 105.62 26.9285V26.946V26.9372ZM105.593 53.8131C105.541 54.3387 105.558 54.803 105.462 55.2323C104.998 57.177 104.507 59.1217 104.06 61.0665C103.99 61.3468 103.99 61.7235 104.13 61.96C105.006 63.4755 105.874 65.0085 106.828 66.4714C107.31 67.216 107.95 67.838 108.572 68.5651C108.703 68.3548 108.773 68.2672 108.8 68.1709C109.544 66.2086 110 64.1675 110.219 62.0739C110.297 61.2504 110.516 60.3481 109.728 59.6386C109.238 59.1918 108.808 58.6662 108.44 58.1231C107.503 56.7565 106.609 55.3374 105.602 53.8219H105.585L105.593 53.8131ZM106.347 40.4277C106.347 38.5618 104.831 36.985 102.983 37.0463C100.889 37.1252 99.838 38.5268 99.654 40.3752C99.4876 42.1009 101.248 43.7653 103.062 43.7653C104.875 43.7653 106.355 42.1973 106.355 40.419H106.338L106.347 40.4277ZM89.904 27.1387C90.71 30.0558 96.0624 35.4257 98.7868 36.0389C98.0597 34.8388 97.5516 33.5861 96.7106 32.6488C95.5718 31.3611 94.2228 30.2748 92.9087 29.1886C92.0152 28.4615 90.9991 27.8833 89.9128 27.1475L89.904 27.1387ZM98.7167 44.6501C97.9545 45.0618 97.3501 45.3947 96.7369 45.7363C96.2901 45.9816 95.7996 46.2006 95.4316 46.5423C93.557 48.268 91.8751 50.1514 90.5348 52.3239C90.307 52.6831 90.1055 53.0685 89.8953 53.4277C89.9478 53.4627 90.0092 53.5065 90.0617 53.5416C93.592 51.2815 97.0172 48.96 98.7079 44.6413L98.7167 44.6501ZM107.337 36.0827C111.541 34.4183 113.898 31.0107 116.035 27.384C112.391 29.5127 109.036 31.9129 107.337 36.0827ZM107.275 44.7026C107.503 45.1144 107.652 45.4473 107.836 45.7363C108.265 46.4809 108.581 47.3219 109.141 47.9439C110.858 49.8536 112.768 51.5355 114.958 52.8846C115.299 53.0948 115.667 53.2788 116.027 53.4802C116.079 53.4277 116.105 53.3664 116.158 53.3138C113.915 49.7835 111.559 46.3758 107.293 44.6764L107.275 44.6939V44.7026ZM103 46.7262C101.187 50.7121 102.063 54.6979 102.886 58.7713C104.323 57.1244 104.349 48.7673 103 46.7262ZM103.132 22.1104C103.132 22.1104 102.965 22.1279 102.886 22.1455C102.063 26.1138 101.222 30.0996 103.053 34.1555C103.105 34.0592 103.167 33.9891 103.202 33.9102C103.692 32.0794 104.384 30.3011 104.043 28.3213C103.815 26.9723 103.798 25.5882 103.614 24.2391C103.517 23.512 103.298 22.82 103.132 22.0929V22.1104ZM119.96 47.5672C119.925 47.4183 119.925 47.3569 119.907 47.3394C116.929 45.1319 113.81 43.2222 110.017 42.7754C109.57 42.7229 109.124 42.7054 108.616 42.6616C111.778 45.894 115.781 46.8489 119.969 47.5584L119.951 47.576L119.96 47.5672ZM108.624 38.1238C113.092 38.0538 116.57 35.8462 119.925 33.3584C115.773 33.9365 111.787 34.9089 108.624 38.1238ZM96.8595 40.4015C94.8798 39.6393 92.8562 39.2451 90.71 39.3678C88.7827 39.4641 85.5328 39.9635 84.5516 40.4891C88.7214 41.4614 92.8036 42.1359 96.8595 40.4102V40.4015ZM109.167 40.4277C110.893 40.9183 112.558 41.6279 114.423 41.4351C115.264 41.3563 116.105 41.4001 116.929 41.2862C118.462 41.0847 119.995 40.8044 121.528 40.5591C121.528 40.4803 121.51 40.3927 121.493 40.3314C117.393 39.3765 113.285 38.667 109.15 40.4277H109.167ZM105.409 34.5497C106.872 33.0868 108.046 31.4662 108.686 29.4776C109.308 27.5504 109.886 25.6232 110 23.5646C107.608 26.8759 105.401 30.2573 105.401 34.5585L105.409 34.5497ZM96.0799 23.5734C96.0273 25.0888 96.4566 26.508 96.8508 27.9359C97.5779 30.5026 98.6816 32.8327 100.723 34.7249C100.67 30.3624 98.4626 26.9285 96.0799 23.5734ZM100.767 45.9553C99.251 47.6373 98.0772 49.2666 97.3764 51.2639C96.6668 53.2875 95.8609 56.5025 96.1062 57.212H96.1587C98.2349 54.3738 100.013 51.4129 100.609 47.8826C100.705 47.3044 100.705 46.7087 100.758 45.9729L100.775 45.9553H100.767ZM109.877 57.2734L110.175 57.1945C109.973 56.2572 109.833 55.3199 109.579 54.3913C108.966 52.0874 108.397 49.7484 106.846 47.8212C106.399 47.2606 105.944 46.7175 105.479 46.1743C105.401 50.5369 107.608 53.9182 109.859 57.2646L109.877 57.2821V57.2734ZM86.2161 33.2445C86.2161 33.2445 86.1635 33.3408 86.1372 33.3934C86.2336 33.4898 86.3212 33.6387 86.4351 33.7088C88.152 34.7162 89.8252 35.7674 91.5772 36.7222C93.1102 37.5457 94.7746 38.0362 96.5354 38.0362C96.8157 38.0362 97.0961 38.1151 97.4727 38.1676C94.3279 34.9089 90.307 33.9803 86.1985 33.2445H86.2161ZM85.997 47.4007C86.2248 47.4796 86.2949 47.5322 86.3387 47.5146C88.5637 47.173 90.6924 46.5423 92.8124 45.7977C94.6432 45.1582 95.9748 43.8529 97.5428 42.6703C93.0139 42.7229 89.5186 44.9304 85.997 47.4007Z" fill="url(#paint0_linear_847_453)"/>
<path d="M66.2788 133.653V106.155H68.206V141.581C67.0496 141.923 66.4277 141.633 65.4378 140.407C64.6932 139.487 63.9048 138.611 63.1339 137.709C61.5834 135.948 60.0503 134.179 58.4911 132.418C57.3698 131.148 56.2134 129.877 55.1009 128.616C53.638 126.952 52.1838 125.27 50.7384 123.605C50.0113 122.782 49.2755 121.976 48.5484 121.152C47.0154 119.409 45.4823 117.657 43.9493 115.914C42.9156 114.731 41.8732 113.557 40.822 112.384C40.7081 112.27 40.5767 112.173 40.3402 111.972V141.633H38.3779V106.129H41.6892C41.8557 106.129 42.0309 106.313 42.1535 106.444C43.4588 107.907 44.7553 109.379 46.043 110.842C47.9089 112.953 49.7485 115.073 51.6319 117.202C52.8496 118.568 54.0847 119.917 55.3024 121.284C56.8529 123.027 58.4035 124.814 59.9452 126.575C60.7074 127.433 61.4607 128.274 62.2316 129.133C63.5369 130.596 64.8509 132.05 66.305 133.662H66.2875L66.2788 133.653Z" fill="url(#paint1_linear_847_453)"/>
<path d="M113.68 141.641H111.718V106.119H115.047C115.213 106.119 115.379 106.303 115.511 106.434C116.799 107.889 118.078 109.334 119.348 110.788C121.222 112.917 123.088 115.054 124.963 117.183C126.181 118.55 127.416 119.899 128.633 121.265C130.184 123.009 131.735 124.796 133.276 126.556C134.476 127.905 135.694 129.246 136.903 130.595C137.761 131.55 138.62 132.522 139.575 133.608V106.172H141.555V141.58C140.354 141.913 139.759 141.632 138.769 140.406C138.024 139.486 137.236 138.61 136.465 137.708C134.914 135.947 133.381 134.178 131.822 132.417C130.701 131.147 129.545 129.894 128.432 128.615C126.969 126.951 125.532 125.269 124.069 123.604C122.983 122.369 121.897 121.169 120.811 119.934C119.295 118.208 117.78 116.474 116.264 114.748C115.458 113.846 114.635 112.952 113.68 111.901V141.659H113.698L113.68 141.641Z" fill="url(#paint2_linear_847_453)"/>
<path d="M107.687 141.677C106.285 141.677 104.971 141.677 103.649 141.659C103.5 141.659 103.307 141.432 103.219 141.265C102.475 139.653 101.739 138.033 101.012 136.421C100.302 134.853 99.6278 133.294 98.8832 131.743C98.8044 131.559 98.4014 131.41 98.1561 131.41C94.8799 131.393 91.6123 131.41 88.3361 131.41H80.6623C80.1542 131.41 79.8739 131.489 79.6549 132.023C78.4372 134.976 77.167 137.893 75.9318 140.818C75.669 141.44 75.3712 141.843 74.6178 141.712C74.2411 141.642 73.8469 141.712 73.3301 141.712C73.7068 140.818 74.0396 140.03 74.3638 139.224C75.6165 136.29 76.8516 133.355 78.1218 130.429C79.1117 128.108 80.1279 125.795 81.1178 123.474C82.423 120.46 83.702 117.429 85.0073 114.398C86.1285 111.814 87.2674 109.221 88.3711 106.619C88.5551 106.207 88.7653 106.094 89.1946 106.111C89.9655 106.146 90.7626 106.146 91.5335 106.111C91.8752 106.111 92.0766 106.207 92.2256 106.54C92.9351 108.152 93.6622 109.738 94.3718 111.35C95.2653 113.391 96.1501 115.432 97.0436 117.464C98.5766 120.959 100.092 124.437 101.625 127.924C102.843 130.692 104.078 133.425 105.296 136.193C106.084 137.989 106.864 139.785 107.687 141.677ZM89.0632 110.158C86.3125 116.571 83.6056 122.878 80.89 129.238H97.7619C94.8623 122.86 91.9803 116.571 89.0632 110.158Z" fill="url(#paint3_linear_847_453)"/>
<path d="M34.3307 141.677H30.3449C30.1784 141.677 29.9682 141.476 29.8806 141.336C28.9082 139.242 27.9534 137.131 26.9985 135.028C26.5167 133.96 26.0262 132.882 25.5619 131.796C25.3955 131.402 25.0976 131.419 24.7735 131.419H6.58757C5.78165 133.311 4.9582 135.195 4.15227 137.07C3.57411 138.419 2.99594 139.785 2.42654 141.143C2.2601 141.537 2.03234 141.756 1.55053 141.704C1.08625 141.651 0.595685 141.704 0 141.704C0.201482 141.213 0.341643 140.784 0.525604 140.372C2.20754 136.483 3.88947 132.593 5.55389 128.704C7.16574 124.928 8.76883 121.144 10.3807 117.368C11.6509 114.398 12.9474 111.438 14.2351 108.468C14.5154 107.828 14.7782 107.163 15.0936 106.523C15.1724 106.339 15.4352 106.164 15.6367 106.146C16.5127 106.111 17.3625 106.094 18.2385 106.146C18.4487 106.146 18.7466 106.357 18.8517 106.558C19.6138 108.17 20.3321 109.791 21.0417 111.42C21.9352 113.461 22.82 115.502 23.7135 117.535C25.2115 120.977 26.727 124.437 28.2425 127.88C29.2674 130.184 30.3011 132.497 31.326 134.801C32.3159 137.061 33.3058 139.295 34.3395 141.686L34.3307 141.677ZM15.6981 110.159C12.9474 116.553 10.2405 122.878 7.50738 129.238H24.3968C21.4972 122.878 18.6327 116.571 15.6981 110.159Z" fill="url(#paint4_linear_847_453)"/>
<path d="M174.282 141.676C174.624 140.835 174.939 140.091 175.255 139.355C177.445 134.265 179.635 129.176 181.825 124.077C183.953 119.119 186.091 114.161 188.219 109.211C188.614 108.309 188.982 107.381 189.393 106.513C189.472 106.329 189.788 106.137 189.989 106.137C190.812 106.084 191.636 106.137 192.459 106.102C192.854 106.102 193.038 106.25 193.186 106.583C193.896 108.195 194.623 109.798 195.333 111.393C196.226 113.434 197.111 115.475 198.004 117.525C199.52 120.985 201.018 124.428 202.533 127.888C203.567 130.244 204.627 132.583 205.661 134.94C206.633 137.147 207.606 139.355 208.63 141.676H204.548C204.417 141.676 204.233 141.466 204.172 141.317C203.199 139.206 202.262 137.103 201.307 134.992C200.825 133.924 200.352 132.837 199.844 131.777C199.765 131.593 199.45 131.436 199.248 131.436C193.265 131.418 187.291 131.418 181.308 131.436C181.124 131.436 180.844 131.637 180.782 131.795C179.477 134.791 178.18 137.813 176.91 140.826C176.665 141.405 176.402 141.851 175.64 141.702C175.246 141.632 174.834 141.702 174.309 141.702V141.685L174.282 141.676ZM189.998 110.157C187.265 116.552 184.54 122.86 181.825 129.219H198.679C195.779 122.842 192.897 116.535 189.998 110.157Z" fill="url(#paint5_linear_847_453)"/>
<path d="M176.849 106.171V108.229H163.77V141.64H159.565V108.273H146.469V106.18H176.849V106.162V106.171Z" fill="url(#paint6_linear_847_453)"/>
<path d="M127.802 99.6809H116.79V85.0078H127.521V86.4532H119.077V91.6217H126.269V93.0671H119.077V98.2355H127.802V99.6809ZM107.636 99.6809H106.068V98.2355H107.636C109.108 98.2355 110.106 97.8501 110.632 97.0704C111.157 96.2908 111.411 94.9067 111.411 92.9094V86.4795H108.599V85.0341H113.987V92.9094C113.987 94.4775 113.785 95.7564 113.391 96.7551C112.997 97.7537 112.34 98.4896 111.411 98.9626C110.483 99.4357 109.23 99.6722 107.636 99.6722V99.6809ZM98.5342 99.9613C96.8084 99.9613 95.4857 99.7247 94.5746 99.2517C93.6636 98.7786 93.0153 98.0428 92.6386 97.0442C92.2532 96.0455 92.0692 94.7665 92.0692 93.1985V85.0166H94.6447V93.1985C94.6447 95.1958 94.9075 96.5799 95.4243 97.3595C95.9499 98.1392 96.9486 98.5246 98.4203 98.5246H99.2612C100.269 98.5246 101.04 98.3582 101.591 98.0253C102.143 97.6924 102.52 97.1318 102.73 96.3609C102.94 95.5812 103.046 94.53 103.046 93.2072V85.0253H104.491V93.4876C104.491 95.8615 104.035 97.5347 103.133 98.5158C102.231 99.497 100.698 99.9788 98.5429 99.9788L98.5342 99.9613ZM84.7283 92.4626C85.6656 92.4626 86.3226 92.2612 86.6993 91.8582C87.076 91.4552 87.26 90.7019 87.26 89.5893C87.26 88.2928 87.076 87.4431 86.6993 87.0489C86.3226 86.6547 85.6656 86.4532 84.7283 86.4532H80.4709V92.4626H84.7283ZM80.4621 99.6809H78.167V85.0078H84.7195C86.6643 85.0078 87.9958 85.3232 88.7316 85.9451C89.4587 86.5671 89.8267 87.6796 89.8267 89.274V89.4579C89.8267 91.1837 89.4587 92.3663 88.7316 92.9882C88.0046 93.6102 86.6643 93.9256 84.7195 93.9256H80.4621V99.6985V99.6809Z" fill="url(#paint7_linear_847_453)"/>
<defs>
<linearGradient id="paint0_linear_847_453" x1="88.0907" y1="-38.1063" x2="134.615" y2="207.474" gradientUnits="userSpaceOnUse">
<stop stop-color="#96671B"/>
<stop offset="0.55" stop-color="#DBA857"/>
<stop offset="0.96" stop-color="#96610B"/>
</linearGradient>
<linearGradient id="paint1_linear_847_453" x1="24.8699" y1="-26.1307" x2="71.3859" y2="219.449" gradientUnits="userSpaceOnUse">
<stop stop-color="#96671B"/>
<stop offset="0.55" stop-color="#DBA857"/>
<stop offset="0.96" stop-color="#96610B"/>
</linearGradient>
<linearGradient id="paint2_linear_847_453" x1="95.6781" y1="-39.5433" x2="142.203" y2="206.037" gradientUnits="userSpaceOnUse">
<stop stop-color="#96671B"/>
<stop offset="0.55" stop-color="#DBA857"/>
<stop offset="0.96" stop-color="#96610B"/>
</linearGradient>
<linearGradient id="paint3_linear_847_453" x1="57.5444" y1="-32.3156" x2="104.06" y2="213.264" gradientUnits="userSpaceOnUse">
<stop stop-color="#96671B"/>
<stop offset="0.55" stop-color="#DBA857"/>
<stop offset="0.96" stop-color="#96610B"/>
</linearGradient>
<linearGradient id="paint4_linear_847_453" x1="-13.2628" y1="-18.9036" x2="33.262" y2="226.676" gradientUnits="userSpaceOnUse">
<stop stop-color="#96671B"/>
<stop offset="0.55" stop-color="#DBA857"/>
<stop offset="0.96" stop-color="#96610B"/>
</linearGradient>
<linearGradient id="paint5_linear_847_453" x1="154.993" y1="-50.7826" x2="201.517" y2="194.797" gradientUnits="userSpaceOnUse">
<stop stop-color="#96671B"/>
<stop offset="0.55" stop-color="#DBA857"/>
<stop offset="0.96" stop-color="#96610B"/>
</linearGradient>
<linearGradient id="paint6_linear_847_453" x1="132.531" y1="-46.526" x2="179.056" y2="199.054" gradientUnits="userSpaceOnUse">
<stop stop-color="#96671B"/>
<stop offset="0.55" stop-color="#DBA857"/>
<stop offset="0.96" stop-color="#96610B"/>
</linearGradient>
<linearGradient id="paint7_linear_847_453" x1="78.4824" y1="-36.2842" x2="124.998" y2="209.296" gradientUnits="userSpaceOnUse">
<stop stop-color="#96671B"/>
<stop offset="0.55" stop-color="#DBA857"/>
<stop offset="0.96" stop-color="#96610B"/>
</linearGradient>
</defs>
</svg>
