<svg width="92" height="93" viewBox="0 0 92 93" fill="none" xmlns="http://www.w3.org/2000/svg">
<path d="M63.7 88.66C59.75 86.91 56.36 84.48 53.11 81.63C51.25 85.5 49.07 89.1 46.02 92.18C43.14 89.04 40.87 85.58 39 81.67C35.75 84.49 32.36 86.96 28.41 88.67C26.89 84.72 26.19 80.62 25.89 76.35C21.86 77.72 17.8 78.68 13.44 78.72C13.55 74.39 14.46 70.33 15.81 66.38C13.7 66.08 11.62 65.85 9.57 65.46C7.54 65.07 5.56 64.46 3.48 63.92C5.25 59.86 7.67 56.45 10.55 53.18C6.66 51.37 3.16 49.08 0 46.15C3.12 43.18 6.66 40.92 10.46 39.15C9.12 37.38 7.77 35.76 6.6 34.02C5.45 32.29 4.49001 30.45 3.38 28.55C7.44 26.97 11.52 26.24 15.81 26.01C14.46 21.98 13.53 17.92 13.4 13.58C17.74 13.58 21.79 14.56 25.85 15.93C26.15 11.7 26.83 7.6 28.37 3.61C32.28 5.32 35.71 7.73 38.87 10.55C39.98 8.65 40.94 6.79 42.09 5.08C43.24 3.35 44.57 1.75 45.91 0C49.03 3.16 51.23 6.73 53.04 10.53C54.75 9.23 56.39 7.9 58.12 6.71C59.85 5.54 61.71 4.57 63.59 3.44C65.23 7.58 65.9 11.68 66.17 15.91C70.27 14.56 74.31 13.56 78.62 13.56C78.54 17.87 77.59 21.93 76.23 25.99C80.5 26.25 84.56 26.95 88.53 28.49C86.82 32.46 84.37 35.83 81.53 39.06C85.37 40.98 88.92 43.12 91.99 46.11C90.5 47.69 88.83 48.95 87.04 50.04C85.27 51.13 83.49 52.17 81.62 53.28C84.31 56.44 86.79 59.79 88.5 63.76C84.55 65.32 80.49 65.98 76.2 66.26C77.57 70.29 78.49 74.35 78.59 78.69C74.32 78.71 70.28 77.71 66.14 76.32C65.88 80.53 65.2 84.61 63.64 88.66L63.7 88.68V88.66ZM19.63 46.06C19.37 45.91 19.12 45.72 18.84 45.57C16.53 44.39 14.5 42.82 12.63 41.04C12.08 40.53 11.67 40.49 11.11 40.81C9.44 41.77 7.74 42.69 6.09 43.71C4.96 44.41 3.89 45.23 2.8 46C2.91 46.17 2.95 46.24 3.01 46.28C5.62 48.33 8.37 50.12 11.4 51.47C11.91 51.7 12.15 51.6 12.53 51.26C13.32 50.53 14.13 49.81 15.01 49.17C16.51 48.08 18.08 47.08 19.66 46.01L19.64 46.05L19.63 46.06ZM46.05 2.82C43.7 5.66 41.89 8.73 40.52 11.77C42.46 14.44 44.32 17.02 46.18 19.59C46.27 19.44 46.39 19.23 46.5 19.03C47.74 16.7 49.28 14.57 51.11 12.69C51.62 12.16 51.64 11.75 51.34 11.15C49.89 8.22 48.24 5.45 46.04 2.82H46.06H46.05ZM40.52 80.48C41.95 83.55 43.7 86.65 46.11 89.43C46.77 88.55 47.41 87.83 47.9 87.02C49.12 85.03 50.29 82.98 51.44 80.94C51.65 80.58 51.76 80.19 51.33 79.76C49.64 78.05 48.23 76.11 47.02 74.02C46.74 73.53 46.44 73.04 46.21 72.65C44.33 75.25 42.49 77.78 40.55 80.47H40.53L40.52 80.48ZM72.48 46.23C75.17 47.57 77.63 49.45 79.97 51.53C80.1 51.64 80.48 51.64 80.67 51.53C81.95 50.91 83.25 50.31 84.45 49.56C86.14 48.51 87.76 47.34 89.49 46.17C86.73 43.89 83.85 42.16 80.8 40.7C80.33 40.47 80.07 40.55 79.73 40.89C79.26 41.36 78.77 41.81 78.24 42.21C76.36 43.55 74.44 44.86 72.52 46.2L72.48 46.24V46.23ZM35.95 21.61C36.04 21.18 36.14 20.82 36.18 20.46C36.41 17.96 37.06 15.57 37.93 13.24C38.16 12.66 38.14 12.26 37.65 11.89C35.96 10.57 34.26 9.22 32.53 7.96C31.59 7.28 30.56 6.74 29.45 6.04C29.19 7.09 28.89 7.96 28.75 8.86C28.39 11.25 28.09 13.64 27.77 16.03C27.71 16.5 27.94 16.73 28.32 16.95C30.13 17.95 31.95 18.96 33.72 20.02C34.47 20.47 35.15 21.04 35.94 21.6L35.96 21.62L35.95 21.61ZM56.15 21.61C56.47 21.4 56.68 21.29 56.86 21.14C58.93 19.43 61.22 18.07 63.69 16.98C64.39 16.68 64.46 16.27 64.39 15.66C64.2 14.06 64.05 12.44 63.79 10.86C63.53 9.28 63.11 7.74 62.74 6.05C62.16 6.37 61.67 6.61 61.22 6.9C58.72 8.4 56.33 10.08 54.26 12.17C54.11 12.34 54 12.72 54.07 12.92C54.94 15.14 55.54 17.42 55.84 19.77C55.92 20.35 56.03 20.94 56.14 21.59L56.16 21.61H56.15ZM62.7 86.24C63.06 84.7 63.41 83.42 63.64 82.1C63.94 80.26 64.17 78.38 64.39 76.51C64.47 75.96 64.39 75.55 63.73 75.25C62.34 74.65 61 73.91 59.7 73.12C58.5 72.39 57.39 71.5 56.18 70.67C56.1 70.9 55.99 71.08 55.97 71.27C55.74 74.02 55.1 76.65 54.07 79.21C53.92 79.59 53.98 79.89 54.31 80.17C55.76 81.34 57.17 82.58 58.65 83.67C59.87 84.57 61.23 85.33 62.68 86.25V86.23L62.7 86.24ZM29.43 86.16C29.98 85.86 30.35 85.65 30.71 85.45C33.25 83.98 35.54 82.21 37.73 80.28C38.14 79.9 38.12 79.57 37.97 79.04C37.39 77.01 36.86 74.96 36.35 72.91C36.16 72.18 36.09 71.41 35.96 70.58C35.77 70.69 35.68 70.75 35.6 70.81C33.53 72.6 31.22 74.03 28.72 75.12C27.93 75.46 27.67 75.87 27.78 76.66C28.06 78.71 28.31 80.78 28.65 82.81C28.82 83.9 29.16 84.97 29.46 86.16L29.44 86.18L29.43 86.16ZM70.56 56.16C70.65 56.37 70.67 56.52 70.77 56.63C72.65 58.81 74.04 61.31 75.28 63.91C75.45 64.27 75.66 64.44 76.07 64.4C77.63 64.25 79.19 64.17 80.73 63.93C82.29 63.69 83.81 63.27 85.36 62.97C85.96 62.86 86 62.56 85.72 62.09C85.42 61.58 85.16 61.06 84.8 60.59C83.26 58.52 81.68 56.45 80.08 54.42C79.93 54.23 79.5 54.08 79.29 54.16C76.49 55.21 73.63 55.93 70.56 56.19V56.17V56.16ZM21.56 36.09C21.52 35.96 21.52 35.92 21.48 35.88C19.67 33.53 17.98 31.08 16.87 28.32C16.72 27.93 16.44 27.81 16.06 27.87C13.78 28.13 11.49 28.38 9.23 28.7C8.18 28.85 7.16 29.19 6.03 29.47C6.27 29.9 6.46 30.2 6.63 30.52C8.12 33.17 9.92 35.56 11.97 37.78C12.31 38.14 12.61 38.19 13.06 38.02C15.79 36.95 18.59 36.29 21.56 36.06L21.54 36.08L21.56 36.09ZM70.47 36.07C73.1 36.3 75.51 36.71 77.77 37.63C79.14 38.19 80.06 38.16 81.08 36.82C82.7 34.68 84.33 32.55 85.69 30.22C85.99 29.71 85.95 29.45 85.33 29.28C82.38 28.51 79.39 27.93 76.32 27.85C75.66 27.85 75.4 28.09 75.1 28.62C74.01 30.58 72.84 32.51 71.7 34.43C71.36 34.98 70.93 35.46 70.46 36.09L70.48 36.07H70.47ZM21.41 56.12C21.5 56.18 21.43 56.12 21.35 56.1C18.6 55.93 15.95 55.29 13.39 54.29C12.66 54.01 12.15 54.08 11.7 54.7C11.46 55.04 11.17 55.34 10.89 55.66C9.1 57.67 7.62 59.93 6.26 62.26C6.09 62.56 6.07 62.79 6.52 62.88C7.23 63.03 7.93 63.27 8.65 63.39C10.76 63.73 12.88 64.03 15.01 64.35C16.16 64.52 16.76 64.14 17.32 63C18.5 60.63 20.01 58.41 21.4 56.12H21.41ZM66.46 74.31C69.58 75.51 72.99 76.36 76.62 76.72C76.28 72.98 75.42 69.55 74.1 66.19C70.88 66.3 67.84 65.64 64.94 64.87C65.45 67.99 65.94 71.06 66.44 74.31H66.46ZM66.25 18C66.08 21.18 65.72 24.28 64.69 27.44C67.87 26.52 70.93 25.95 74.11 26.03C75.41 22.66 76.31 19.22 76.59 15.65C75.48 15.41 70.06 16.48 66.25 18ZM15.32 76.68C15.75 76.68 16 76.72 16.24 76.68C19.31 76.21 22.32 75.57 25.23 74.48C25.76 74.29 25.93 74.05 25.98 73.48C26.11 71.82 26.3 70.17 26.54 68.53C26.73 67.31 27.05 66.12 27.33 64.9C27.27 64.9 27.2 64.84 27.12 64.86C26.95 64.9 26.8 64.94 26.63 64.99C24.05 65.69 21.46 66.25 18.77 66.17C18.13 66.17 17.87 66.43 17.72 66.94C17.4 67.96 17.02 68.97 16.78 70.02C16.27 72.18 15.84 74.38 15.33 76.68L15.31 76.66L15.32 76.68ZM15.41 15.48C15.49 15.93 15.56 16.16 15.58 16.4C15.94 19.48 16.67 22.48 17.76 25.39C17.95 25.9 18.17 26.07 18.7 26.05C20.96 25.99 23.18 26.39 25.36 26.92C26 27.07 26.66 27.24 27.26 27.39C26.94 25.85 26.58 24.42 26.38 22.95C26.15 21.48 26.1 19.98 25.89 18.51C25.85 18.25 25.5 17.89 25.21 17.81C23.12 17.19 21.02 16.57 18.89 16.04C17.8 15.78 16.65 15.68 15.39 15.49L15.41 15.47V15.48ZM78.27 39.74C78.01 39.61 77.88 39.51 77.72 39.46C75.29 38.61 72.79 38.09 70.25 37.82C69.33 37.73 68.54 37.86 67.8 38.65C66.97 39.53 65.94 40.23 64.92 40.93C63.74 41.72 62.49 42.42 61.27 43.15C61.74 43.3 62.21 43.21 62.64 43.3C64.97 43.83 67.27 44.41 69.6 44.92C69.96 45 70.41 45 70.71 44.84C72.33 43.94 73.95 43.02 75.49 42C76.47 41.36 77.31 40.53 78.27 39.74ZM37.21 33.05C37.21 33.05 37.32 32.99 37.38 32.96C37.34 32.77 37.3 32.57 37.25 32.38C36.63 30.05 36.05 27.7 36.03 25.25C36.03 24.78 35.82 24.2 35.48 23.9C33.64 22.17 31.53 20.78 29.31 19.57C28.86 19.33 28.37 19.14 27.71 18.84C27.8 19.57 27.9 20.08 27.92 20.59C28.03 23.07 28.67 25.44 29.48 27.77C29.59 28.09 29.91 28.39 30.21 28.58C32.02 29.69 33.86 30.74 35.66 31.87C36.21 32.21 36.68 32.66 37.2 33.05H37.21ZM73.29 64.46C73.23 64.2 73.21 64.1 73.18 64.03C71.92 61.3 70.26 58.84 68.23 56.62C68.02 56.39 67.65 56.3 67.33 56.26C65.64 56.02 63.94 55.83 62.27 55.55C61.24 55.38 60.22 55.06 59 54.76C59.45 55.36 59.79 55.76 60.09 56.21C61.24 58.03 62.42 59.82 63.46 61.7C63.8 62.32 64.12 62.73 64.78 62.9C66.3 63.29 67.83 63.75 69.37 64.05C70.63 64.29 71.93 64.33 73.3 64.48V64.46H73.29ZM78.35 52.66C78.09 52.36 77.99 52.23 77.88 52.15C76.06 50.83 74.23 49.52 72.41 48.24C71.07 47.3 69.72 47.07 68.1 47.75C66.86 48.26 65.47 48.43 64.13 48.67C63.19 48.86 62.23 48.95 61.2 49.08C61.37 49.19 61.46 49.27 61.58 49.32C64.1 50.62 66.43 52.16 68.48 54.13C68.67 54.3 69.01 54.41 69.27 54.39C70.61 54.28 71.96 54.2 73.26 53.94C74.92 53.6 76.55 53.11 78.36 52.66V52.64L78.35 52.66ZM37.42 59.15C37.14 59.26 37.06 59.26 37.01 59.3C34.94 61.11 32.63 62.5 30.16 63.68C29.88 63.81 29.56 64.15 29.48 64.45C28.93 66.54 28.39 68.64 27.94 70.75C27.77 71.54 27.81 72.39 27.75 73.35C28.14 73.2 28.41 73.14 28.62 73.01C30.58 71.77 32.55 70.55 34.45 69.23C35.33 68.61 36.07 67.89 36.09 66.56C36.09 65.02 36.47 63.48 36.73 61.93C36.88 61.03 37.16 60.16 37.41 59.15H37.43H37.42ZM64.43 18.77C61.36 20.22 58.67 21.89 56.4 24.17C56.23 24.34 56.17 24.68 56.14 24.96C55.9 26.73 55.69 28.5 55.41 30.25C55.26 31.21 54.94 32.15 54.68 33.24C55.09 32.92 55.41 32.69 55.71 32.45C57.65 30.91 59.72 29.57 61.99 28.56C62.25 28.45 62.54 28.13 62.63 27.86C63.1 26.26 63.61 24.64 63.95 23.01C64.23 21.67 64.29 20.3 64.46 18.78H64.44L64.43 18.77ZM64.41 73.45C64.3 72.43 64.18 71.53 64.11 70.65C63.94 68.45 63.28 66.36 62.59 64.27C62.53 64.08 62.29 63.91 62.1 63.8C60.35 62.75 58.56 61.71 56.83 60.64C56.1 60.19 55.46 59.62 54.72 59.1C54.68 59.25 54.66 59.31 54.68 59.34C55.56 61.99 56.09 64.72 56.15 67.52C56.15 67.73 56.3 67.99 56.45 68.14C57.13 68.78 57.82 69.4 58.56 69.96C60.33 71.31 62.23 72.46 64.41 73.44V73.45ZM73.4 28.08C73.4 28.08 73.23 27.89 73.16 27.82C72.48 27.9 71.81 27.97 71.13 28.01C68.8 28.16 66.58 28.76 64.38 29.51C64.12 29.6 63.78 29.83 63.68 30.07C62.61 32.57 61.12 34.79 59.41 36.88C59.3 37.03 59.24 37.22 59.11 37.52C61.99 36.62 64.75 36.13 67.59 35.98C67.87 35.98 68.21 35.68 68.42 35.45C69.02 34.75 69.64 34.04 70.15 33.27C71.28 31.58 72.33 29.83 73.4 28.1V28.08ZM18.89 27.87C19 28.21 19.06 28.45 19.15 28.66C20.3 30.99 21.75 33.14 23.44 35.13C23.91 35.68 24.44 36.01 25.25 36.03C26.57 36.07 27.86 36.31 29.16 36.54C30.44 36.78 31.7 37.12 33.05 37.44C32.96 37.29 32.94 37.2 32.86 37.12C31.26 35.16 29.79 33.09 28.8 30.76C28.33 29.65 27.45 29.35 26.49 29.05C26.21 28.97 25.93 28.9 25.64 28.82C23.46 28.24 21.26 27.82 18.87 27.84L18.89 27.86V27.87ZM43.06 61.39C43.06 61.39 42.95 61.43 42.93 61.45C41.65 63.95 40.11 66.26 38.23 68.35C37.93 68.67 37.72 69.22 37.74 69.65C37.8 70.8 37.93 71.94 38.17 73.05C38.55 74.78 39.04 76.47 39.51 78.28C39.79 78.09 39.92 78.04 40.02 77.94C42.03 75.66 43.71 73.18 44.93 70.42C45.01 70.23 44.99 69.97 44.93 69.74C44.55 68.35 44.08 66.99 43.76 65.6C43.44 64.21 43.29 62.8 43.05 61.39H43.07H43.06ZM43.1 30.86C43.18 30.39 43.27 29.94 43.31 29.47C43.54 27.08 44.08 24.77 44.91 22.51C45 22.27 45 21.93 44.91 21.7C43.88 19.41 42.56 17.3 40.98 15.36C40.59 14.89 40.13 14.46 39.64 13.91C39.32 14.89 38.96 15.7 38.79 16.56C38.43 18.35 38.26 20.17 37.85 21.94C37.61 22.99 37.98 23.63 38.66 24.35C39.36 25.1 40 25.91 40.56 26.78C41.44 28.1 42.25 29.45 43.12 30.86H43.1ZM18.78 64.32C19.19 64.34 19.4 64.36 19.59 64.36C22.17 64.25 24.65 63.72 27.11 62.97C27.92 62.73 28.43 62.27 28.82 61.48C29.59 59.94 30.53 58.47 31.45 57C31.92 56.25 32.5 55.57 33.14 54.72C32.58 54.87 32.2 54.95 31.84 55.06C29.55 55.76 27.18 56.08 24.79 56.26C24.49 56.28 24.11 56.45 23.91 56.65C22.37 58.25 21.11 60.04 20.04 61.95C19.63 62.68 19.25 63.44 18.78 64.32ZM13.93 52.34C13.93 52.34 13.99 52.51 14.02 52.6C14.57 52.79 15.11 53.05 15.68 53.18C17.77 53.61 19.87 54.05 21.98 54.4C22.56 54.49 23.16 54.53 23.77 54.02C25.26 52.78 26.82 51.65 28.4 50.54C29.19 49.99 30.07 49.58 30.9 49.11C30.43 48.96 29.98 49.03 29.56 48.94C27.19 48.41 24.82 47.85 22.45 47.32C22.17 47.26 21.81 47.23 21.57 47.34C20.44 47.9 19.28 48.45 18.22 49.16C16.73 50.14 15.36 51.27 13.93 52.32V52.34ZM14 39.59V39.83C14.39 40.17 14.79 40.49 15.17 40.83C17.11 42.5 19.25 43.86 21.58 44.89C21.81 45 22.14 44.98 22.41 44.93C23.8 44.59 25.17 44.16 26.59 43.84C27.96 43.54 29.35 43.37 30.8 43.13C30.69 43.04 30.59 42.92 30.48 42.87C28.19 41.69 26.02 40.31 24.16 38.51C23.5 37.87 22.71 37.72 21.87 37.85C20.42 38.08 18.97 38.28 17.56 38.6C16.36 38.86 15.19 39.28 14.01 39.62V39.6L14 39.59ZM49.02 30.75C49.15 30.67 49.21 30.66 49.23 30.62C50.47 28.33 51.84 26.14 53.61 24.21C53.99 23.82 54.42 23.38 54.31 22.67C54.01 20.79 53.8 18.91 53.46 17.03C53.27 16.01 52.88 15.06 52.56 14.06C52.45 14 52.32 13.93 52.2 13.87C52.03 14.15 51.9 14.45 51.69 14.7C50.02 16.75 48.51 18.91 47.35 21.32C47.11 21.83 47.12 22.24 47.27 22.77C47.78 24.74 48.25 26.74 48.7 28.73C48.85 29.39 48.91 30.05 49.02 30.74V30.76V30.75ZM48.99 61.43C48.93 62.03 48.95 62.56 48.84 63.05C48.31 65.27 47.75 67.49 47.24 69.71C47.16 70.03 47.16 70.46 47.32 70.73C48.32 72.46 49.31 74.21 50.4 75.88C50.95 76.73 51.68 77.44 52.39 78.27C52.54 78.03 52.62 77.93 52.65 77.82C53.5 75.58 54.02 73.25 54.27 70.86C54.36 69.92 54.61 68.89 53.71 68.08C53.15 67.57 52.66 66.97 52.24 66.35C51.17 64.79 50.15 63.17 49 61.44H48.98L48.99 61.43ZM49.85 46.15C49.85 44.02 48.12 42.22 46.01 42.29C43.62 42.38 42.42 43.98 42.21 46.09C42.02 48.06 44.03 49.96 46.1 49.96C48.17 49.96 49.86 48.17 49.86 46.14H49.84L49.85 46.15ZM31.08 30.98C32 34.31 38.11 40.44 41.22 41.14C40.39 39.77 39.81 38.34 38.85 37.27C37.55 35.8 36.01 34.56 34.51 33.32C33.49 32.49 32.33 31.83 31.09 30.99L31.08 30.98ZM41.14 50.97C40.27 51.44 39.58 51.82 38.88 52.21C38.37 52.49 37.81 52.74 37.39 53.13C35.25 55.1 33.33 57.25 31.8 59.73C31.54 60.14 31.31 60.58 31.07 60.99C31.13 61.03 31.2 61.08 31.26 61.12C35.29 58.54 39.2 55.89 41.13 50.96L41.14 50.97ZM50.98 41.19C55.78 39.29 58.47 35.4 60.91 31.26C56.75 33.69 52.92 36.43 50.98 41.19ZM50.91 51.03C51.17 51.5 51.34 51.88 51.55 52.21C52.04 53.06 52.4 54.02 53.04 54.73C55 56.91 57.18 58.83 59.68 60.37C60.07 60.61 60.49 60.82 60.9 61.05C60.96 60.99 60.99 60.92 61.05 60.86C58.49 56.83 55.8 52.94 50.93 51L50.91 51.02V51.03ZM46.03 53.34C43.96 57.89 44.96 62.44 45.9 67.09C47.54 65.21 47.57 55.67 46.03 53.34ZM46.18 25.24C46.18 25.24 45.99 25.26 45.9 25.28C44.96 29.81 44 34.36 46.09 38.99C46.15 38.88 46.22 38.8 46.26 38.71C46.82 36.62 47.61 34.59 47.22 32.33C46.96 30.79 46.94 29.21 46.73 27.67C46.62 26.84 46.37 26.05 46.18 25.22V25.24ZM65.39 54.3C65.35 54.13 65.35 54.06 65.33 54.04C61.93 51.52 58.37 49.34 54.04 48.83C53.53 48.77 53.02 48.75 52.44 48.7C56.05 52.39 60.62 53.48 65.4 54.29L65.38 54.31L65.39 54.3ZM52.45 43.52C57.55 43.44 61.52 40.92 65.35 38.08C60.61 38.74 56.06 39.85 52.45 43.52ZM39.02 46.12C36.76 45.25 34.45 44.8 32 44.94C29.8 45.05 26.09 45.62 24.97 46.22C29.73 47.33 34.39 48.1 39.02 46.13V46.12ZM53.07 46.15C55.04 46.71 56.94 47.52 59.07 47.3C60.03 47.21 60.99 47.26 61.93 47.13C63.68 46.9 65.43 46.58 67.18 46.3C67.18 46.21 67.16 46.11 67.14 46.04C62.46 44.95 57.77 44.14 53.05 46.15H53.07ZM48.78 39.44C50.45 37.77 51.79 35.92 52.52 33.65C53.23 31.45 53.89 29.25 54.02 26.9C51.29 30.68 48.77 34.54 48.77 39.45L48.78 39.44ZM38.13 26.91C38.07 28.64 38.56 30.26 39.01 31.89C39.84 34.82 41.1 37.48 43.43 39.64C43.37 34.66 40.85 30.74 38.13 26.91ZM43.48 52.46C41.75 54.38 40.41 56.24 39.61 58.52C38.8 60.83 37.88 64.5 38.16 65.31H38.22C40.59 62.07 42.62 58.69 43.3 54.66C43.41 54 43.41 53.32 43.47 52.48L43.49 52.46H43.48ZM53.88 65.38L54.22 65.29C53.99 64.22 53.83 63.15 53.54 62.09C52.84 59.46 52.19 56.79 50.42 54.59C49.91 53.95 49.39 53.33 48.86 52.71C48.77 57.69 51.29 61.55 53.86 65.37L53.88 65.39V65.38ZM26.87 37.95C26.87 37.95 26.81 38.06 26.78 38.12C26.89 38.23 26.99 38.4 27.12 38.48C29.08 39.63 30.99 40.83 32.99 41.92C34.74 42.86 36.64 43.42 38.65 43.42C38.97 43.42 39.29 43.51 39.72 43.57C36.13 39.85 31.54 38.79 26.85 37.95H26.87ZM26.62 54.11C26.88 54.2 26.96 54.26 27.01 54.24C29.55 53.85 31.98 53.13 34.4 52.28C36.49 51.55 38.01 50.06 39.8 48.71C34.63 48.77 30.64 51.29 26.62 54.11Z" fill="url(#paint0_linear_847_487)"/>
<defs>
<linearGradient id="paint0_linear_847_487" x1="29.01" y1="-43.5" x2="82.12" y2="236.84" gradientUnits="userSpaceOnUse">
<stop stop-color="#96671B"/>
<stop offset="0.55" stop-color="#DBA857"/>
<stop offset="0.96" stop-color="#96610B"/>
</linearGradient>
</defs>
</svg>
